<?xml version="1.0" standalone="no"?>
<!DOCTYPE svg PUBLIC "-//W3C//DTD SVG 1.1//EN" "http://www.w3.org/Graphics/SVG/1.1/DTD/svg11.dtd" >
<svg xmlns="http://www.w3.org/2000/svg">
<metadata>Generated by IcoMoon</metadata>
<defs>
<font id="icomoon" horiz-adv-x="1024">
<font-face units-per-em="1024" ascent="960" descent="-64" />
<missing-glyph horiz-adv-x="1024" />
<glyph unicode="&#x20;" horiz-adv-x="512" d="" />
<glyph unicode="&#xe600;" glyph-name="pinterest3" d="M470.331 303.839c-25.584-133.955-56.762-262.364-149.228-329.439-28.503 202.439 41.879 354.439 74.614 515.827-55.789 93.875 6.713 282.695 124.275 236.147 144.704-57.2-125.296-348.846 55.936-385.326 189.258-37.988 266.499 328.32 149.129 447.44-169.509 172.089-493.501 4.038-453.616-242.324 9.68-60.217 71.889-78.457 24.855-161.582-108.516 24.028-140.909 109.635-136.727 223.744 6.713 186.778 167.76 317.473 329.341 335.616 204.336 22.909 396.124-75.052 422.633-267.228 29.817-216.983-92.221-452.012-310.761-435.085-59.244 4.621-84.051 34-130.452 62.211z" />
<glyph unicode="&#xe601;" glyph-name="google-plus-square" d="M473.714 254.857q0-43.429-33.429-64.286t-79.714-20.857q-23.429 0-46 5.429t-43.143 16.286-33.143 30.286-12.571 44.571q0 26.286 14.286 45.714t37.429 29.429 46.857 14.286 48.286 4.286q11.429 0 17.714-1.143 1.143-0.571 13.143-9.429t14.857-10.857 13.143-10.286 14-12.571 10.857-12.857 9.714-14.857 5.143-15.143 2.571-18zM431.429 566.286q0-34.286-18.857-56.857t-52.571-22.571q-30.286 0-53.143 24.286t-32.857 55.143-10 60.571q0 34.857 18.286 59.429t52.571 24.571q30.286 0 53.429-25.714t33.143-57.714 10-61.143zM492 713.143l50.286 36.571h-151.429q-48.571 0-92-18.286t-72.857-56-29.429-87.429q0-53.143 36.857-88.286t90.571-35.143q12.571 0 24.571 1.714-7.429-16.571-7.429-30.857 0-25.143 22.857-53.714-100-6.857-146.857-36-26.857-16.571-43.143-41.714t-16.286-54.286q0-24.571 10.571-44.286t27.714-32.286 39.429-21.143 44.286-12 43.714-3.429q34.286 0 68.857 8.857t64.857 26.286 49.143 47.143 18.857 66.857q0 28-11.429 51.143t-28 38-33.143 27.143-28 25.143-11.429 25.429 8.857 24.286 21.429 22.571 25.143 24 21.429 34 8.857 47.143q0 34.286-12.857 56.857t-41.429 51.714h47.429zM658.286 457.143h73.143v36.571h-73.143v73.143h-36.571v-73.143h-73.143v-36.571h73.143v-91.429h36.571v91.429zM877.714 713.143v-548.571q0-68-48.286-116.286t-116.286-48.286h-548.571q-68 0-116.286 48.286t-48.286 116.286v548.571q0 68 48.286 116.286t116.286 48.286h548.571q68 0 116.286-48.286t48.286-116.286z" />
<glyph unicode="&#xe602;" glyph-name="chevron-up" d="M961.714 190.286l-94.857-94.286q-10.857-10.857-25.714-10.857t-25.714 10.857l-303.429 303.429-303.429-303.429q-10.857-10.857-25.714-10.857t-25.714 10.857l-94.857 94.286q-10.857 10.857-10.857 26t10.857 26l424 423.429q10.857 10.857 25.714 10.857t25.714-10.857l424-423.429q10.857-10.857 10.857-26t-10.857-26z" />
<glyph unicode="&#xe603;" glyph-name="carritoi" horiz-adv-x="1038" d="M357.144 33.657c0-46.229-40.599-83.706-90.681-83.706s-90.681 37.476-90.681 83.706c0 46.229 40.599 83.706 90.681 83.706s90.681-37.476 90.681-83.706zM784.044 33.657c0-46.229-40.599-83.706-90.681-83.706s-90.681 37.476-90.681 83.706c0 46.229 40.599 83.706 90.681 83.706s90.681-37.476 90.681-83.706zM1010.049 926.518h-44.643l-73.382-53.851-57.757-158.483c0 0-4.743-13.672-19.531-10.882l-780.416-48.549c0 0-34.319-17.578 0-43.806l27.902 2.79 60.547-268.416c0 0 11.998-19.531 25.949-16.741l559.991-0.837c0 0 16.741 0 16.741-21.484l0.837-125.559c0 0 2.79-18.694-18.694-21.484h-531.81c0 0-26.507-19.531 0-44.643h574.779c0 0 16.741-5.58 22.322 22.322v195.313l141.742 498.607 73.103 53.851h22.322c0 0 27.065 19.531 0 41.853zM521.766 636.338h36.273v-55.804h-36.273v55.804zM106.027 580.534v33.482h78.125v-33.482h-78.125zM184.153 382.431l-13.951-0.837-13.951 42.69h27.902v-41.853zM184.153 474.507h-39.063l-13.951 53.014h53.014v-53.014zM281.809 376.85h-55.804v47.433h55.804v-47.433zM290.18 474.507h-53.014v53.014h53.014v-53.014zM295.76 580.534h-58.594v36.273h58.594v-36.273zM379.466 390.801h-39.063v33.482h39.063v-33.482zM382.256 474.507h-44.643v53.014h44.643v-53.014zM382.256 574.954h-50.223v55.804h50.223v-55.804zM465.962 382.431h-39.063v36.273h39.063v-36.273zM468.752 477.297h-41.853v50.223h41.853v-50.223zM468.752 574.954h-50.223v55.804h50.223v-55.804zM566.409 388.011h-33.482v30.692h33.482v-30.692zM566.409 474.507h-44.643v53.014h44.643v-53.014zM658.485 388.011h-47.433v36.273h47.433v-36.273zM658.485 474.507h-50.223v53.014h50.223v-53.014zM658.485 580.534h-55.804v66.965h55.804v-66.965zM725.45 376.85h-22.322v47.433h35.435l-13.114-47.433zM750.003 477.297l-38.505-2.79v53.014h62.221l-23.717-50.223zM779.3 574.954h-76.172v80.916l101.563 5.022-25.391-85.938z" />
<glyph unicode="&#xe604;" glyph-name="clear" d="M810 664.667l-238-238 238-238-60-60-238 238-238-238-60 60 238 238-238 238 60 60 238-238 238 238z" />
<glyph unicode="&#xe605;" glyph-name="old-phone" d="M883.507 345.446c-4.915 34.15-31.283 60.774-65.229 68.71-131.942 30.925-165.018 106.906-170.598 191.181-23.398 4.352-65.024 9.062-135.68 9.062s-112.282-4.71-135.68-9.062c-5.581-84.275-38.656-160.256-170.598-191.181-33.946-7.987-60.314-34.56-65.229-68.71l-25.446-176.23c-8.96-62.054 36.608-118.016 99.994-118.016h593.92c63.334 0 108.954 55.962 99.994 118.016l-25.446 176.23zM512 179.61c-71.424 0-129.331 57.344-129.331 128s57.907 128 129.331 128 129.331-57.344 129.331-128-57.958-128-129.331-128zM1021.44 665.6c-1.229 76.8-196.71 204.749-509.44 204.8-312.781-0.051-508.262-128-509.44-204.8s1.075-176.742 129.792-160.102c150.579 19.507 141.312 72.090 141.312 147.251 0 52.429 122.47 65.075 238.336 65.075s238.285-12.646 238.336-65.075c0-75.162-9.267-127.744 141.312-147.251 128.666-16.64 130.97 83.302 129.792 160.102z" />
<glyph unicode="&#xe606;" glyph-name="mail" d="M896 800h-768c-70.688 0-128-57.344-128-128v-416c0-70.688 57.312-128 128-128h768c70.688 0 128 57.312 128 128v416c0 70.656-57.312 128-128 128zM64 632l223.968-168-223.968-168v336zM960 256c0-35.328-28.736-64-64-64h-768c-35.296 0-64 28.672-64 64l250.624 188 139.776-104.864c17.056-12.736 37.312-19.2 57.6-19.2 20.256 0 40.512 6.432 57.568 19.2l139.808 104.864 250.624-188zM960 296l-224 168 224 168v-336zM550.368 364.736c-11.168-8.384-24.416-12.8-38.368-12.8s-27.232 4.448-38.4 12.8l-409.6 307.264c0 35.296 28.704 64 64 64h768c35.264 0 64-28.704 64-64l-409.632-307.264z" />
<glyph unicode="&#xe607;" glyph-name="whatsapp" d="M562.857 394.286q7.429 0 55.714-25.143t51.143-30.286q1.143-2.857 1.143-8.571 0-18.857-9.714-43.429-9.143-22.286-40.571-37.429t-58.286-15.143q-32.571 0-108.571 35.429-56 25.714-97.143 67.429t-84.571 105.714q-41.143 61.143-40.571 110.857v4.571q1.714 52 42.286 90.286 13.714 12.571 29.714 12.571 3.429 0 10.286-0.857t10.857-0.857q10.857 0 15.143-3.714t8.857-15.714q4.571-11.429 18.857-50.286t14.286-42.857q0-12-19.714-32.857t-19.714-26.571q0-4 2.857-8.571 19.429-41.714 58.286-78.286 32-30.286 86.286-57.714 6.857-4 12.571-4 8.571 0 30.857 27.714t29.714 27.714zM446.857 91.428q72.571 0 139.143 28.571t114.571 76.571 76.571 114.571 28.571 139.143-28.571 139.143-76.571 114.571-114.571 76.571-139.143 28.571-139.143-28.571-114.571-76.571-76.571-114.571-28.571-139.143q0-116 68.571-210.286l-45.143-133.143 138.286 44q90.286-59.429 197.143-59.429zM446.857 881.143q87.429 0 167.143-34.286t137.429-92 92-137.429 34.286-167.143-34.286-167.143-92-137.429-137.429-92-167.143-34.286q-111.429 0-208.571 53.714l-238.286-76.571 77.714 231.429q-61.714 101.714-61.714 222.286 0 87.429 34.286 167.143t92 137.429 137.429 92 167.143 34.286z" />
<glyph unicode="&#xe608;" glyph-name="phone" d="M703.968 832h-384c-35.328 0-63.968-28.672-63.968-64v-640c0-35.328 28.64-64 63.968-64h384c35.36 0 64.032 28.672 64.032 64v640c0 35.328-28.672 64-64.032 64zM416 800h160l1.984-32h-161.984v32zM511.328 112c-17.664 0-32 14.304-32 32s14.336 32 32 32c17.696 0 32-14.304 32-32s-14.336-32-32-32zM703.968 224h-384l0.672 512h383.328v-512z" />
<glyph unicode="&#xe609;" glyph-name="google-plus2" d="M429.176 454.981c11.361 0 20.952 4.479 28.358 12.951 11.65 13.222 16.762 34.968 13.727 58.070-5.437 41.308-34.896 75.608-65.692 76.511h-1.228c-10.91 0-20.609-4.443-28.014-12.914-11.506-13.095-16.31-33.794-13.294-56.824 5.401-41.236 35.492-76.873 65.656-77.794h0.488zM462.79 330.587c-3.034 2.041-6.177 4.19-9.41 6.412-9.483 2.926-19.579 4.443-29.875 4.588h-1.3c-47.413 0-89.029-28.755-89.029-61.52 0-35.601 35.619-63.543 81.117-63.543 60.003 0 90.419 20.681 90.419 61.484 0 3.883-0.452 7.875-1.373 11.849-4.064 15.895-18.604 25.775-40.55 40.73zM512.009 866.853c-245.664 0-444.782-199.1-444.782-444.745s199.136-444.782 444.782-444.782c245.61 0 444.745 199.136 444.745 444.782s-199.154 444.745-444.745 444.745zM471.532 180.092c-17.737-5.112-36.865-7.731-56.968-7.731-22.361 0-43.891 2.583-63.94 7.658-38.834 9.772-67.553 28.358-80.919 52.29-5.78 10.368-8.706 21.386-8.706 32.801 0 11.777 2.818 23.698 8.363 35.528 21.313 45.336 77.36 75.807 139.476 75.807 0.632 0 1.228 0 1.806 0-5.039 8.887-7.514 18.098-7.514 27.762 0 4.841 0.632 9.736 1.897 14.703-65.132 1.517-113.9 49.219-113.9 112.112 0 44.451 35.492 87.692 86.265 105.194 15.208 5.256 30.688 7.929 45.932 7.929h139.314c4.768 0 8.923-3.071 10.404-7.586 1.517-4.552-0.144-9.483-3.992-12.282l-31.157-22.542c-1.878-1.337-4.136-2.077-6.448-2.077h-11.144c14.432-17.249 22.867-41.832 22.867-69.503 0-30.543-15.443-59.407-43.53-81.388-21.693-16.906-22.578-21.512-22.578-31.23 0.289-5.328 15.425-22.614 32.060-34.39 38.87-27.509 53.338-54.439 53.338-99.487 0-46.871-35.709-87.547-90.925-103.569zM786.211 419.073c0-6.033-4.931-10.928-10.964-10.928h-79.167v-79.203c0-6.069-4.895-10.964-10.964-10.964h-22.542c-6.069 0-10.964 4.895-10.964 10.964v79.203h-79.221c-5.997 0-10.928 4.895-10.928 10.928v22.578c0 6.033 4.931 10.964 10.928 10.964h79.203v79.167c0 6.069 4.895 10.964 10.964 10.964h22.542c6.069 0 10.964-4.895 10.964-10.964v-79.167h79.167c6.033 0 10.964-4.931 10.964-10.964v-22.578z" />
<glyph unicode="&#xe60a;" glyph-name="user2" horiz-adv-x="805" d="M804.571 148q0-68.571-41.714-108.286t-110.857-39.714h-499.429q-69.143 0-110.857 39.714t-41.714 108.286q0 30.286 2 59.143t8 62.286 15.143 62 24.571 55.714 35.429 46.286 48.857 30.571 63.714 11.429q5.143 0 24-12.286t42.571-27.429 61.714-27.429 76.286-12.286 76.286 12.286 61.714 27.429 42.571 27.429 24 12.286q34.857 0 63.714-11.429t48.857-30.571 35.429-46.286 24.571-55.714 15.143-62 8-62.286 2-59.143zM621.714 658.286q0-90.857-64.286-155.143t-155.143-64.286-155.143 64.286-64.286 155.143 64.286 155.143 155.143 64.286 155.143-64.286 64.286-155.143z" />
<glyph unicode="&#xe60b;" glyph-name="twitter4" d="M512.027 866.853c-245.646 0-444.782-199.172-444.782-444.782 0-245.646 199.136-444.745 444.782-444.745s444.745 199.1 444.745 444.745c0 245.61-199.118 444.782-444.745 444.782zM736.071 511.751c0.235-4.805 0.325-9.627 0.325-14.504 0-148.128-112.744-318.906-318.906-318.906-63.29 0-122.227 18.55-171.826 50.339 8.778-1.030 17.683-1.553 26.732-1.553 52.525 0 100.859 17.918 139.205 47.973-49.039 0.921-90.419 33.343-104.688 77.866 6.828-1.337 13.854-2.005 21.079-2.005 10.223 0 20.121 1.337 29.532 3.919-51.297 10.295-89.932 55.632-89.932 109.89 0 0.488 0 0.957 0.018 1.445 15.1-8.399 32.386-13.438 50.773-14.034-30.092 20.139-49.87 54.403-49.87 93.309 0 20.537 5.527 39.809 15.172 56.354 55.288-67.805 137.887-112.437 231.052-117.097-1.915 8.182-2.908 16.762-2.908 25.54 0 61.881 50.177 112.076 112.094 112.076 32.241 0 61.357-13.619 81.804-35.384 25.54 5.003 49.527 14.359 71.183 27.202-8.399-26.19-26.154-48.154-49.31-62.008 22.704 2.709 44.307 8.742 64.392 17.647-14.992-22.524-34.011-42.266-55.921-58.070z" />
<glyph unicode="&#xe60c;" glyph-name="facebook4" d="M512.009 866.853c-245.646 0-444.782-199.172-444.782-444.782 0-245.646 199.136-444.745 444.782-444.745s444.782 199.1 444.782 444.745c0 245.61-199.154 444.782-444.782 444.782zM629.72 423.932h-77.017c0-123.076 0-274.672 0-274.672h-114.153c0 0 0 150.043 0 274.672h-54.295v96.976h54.295v62.838c0 44.975 21.35 115.183 115.219 115.183l84.531-0.325v-94.194c0 0-51.405 0-61.375 0-10.025 0-24.203-5.003-24.203-26.389v-57.131h87.024l-10.025-96.958z" />
<glyph unicode="&#xe60d;" glyph-name="youtube5" d="M322.103 384.665h32.205v-159.977h31.121v159.977h32.169v27.238h-95.495zM513.201 517.603c4.227 0 7.586 1.12 10.061 3.414 2.475 2.366 3.739 5.581 3.739 9.627v82.905c0 3.323-1.264 6.033-3.811 8.038-2.547 2.077-5.852 3.107-9.988 3.107-3.775 0-6.846-1.030-9.248-3.107-2.366-2.005-3.522-4.732-3.522-8.038v-82.905c0-4.154 1.102-7.369 3.323-9.627 2.186-2.294 5.364-3.414 9.447-3.414zM581.819 364.489c-4.299 0-8.543-1.102-12.734-3.287-4.136-2.186-8.11-5.437-11.813-9.627v60.328h-27.906v-187.215h27.906v10.584c3.594-4.263 7.55-7.369 11.777-9.392 4.19-2.005 9.031-2.998 14.468-2.998 8.146 0 14.468 2.583 18.73 7.803 4.335 5.256 6.52 12.734 6.52 22.505v76.656c0 11.325-2.294 19.941-6.954 25.793-4.588 5.888-11.253 8.85-19.995 8.85zM580.302 257.001c0-4.443-0.813-7.586-2.402-9.519-1.589-1.969-4.064-2.926-7.442-2.926-2.33 0-4.516 0.524-6.665 1.481-2.113 0.957-4.335 2.637-6.52 4.877v86.048c1.878 1.933 3.775 3.36 5.672 4.227 1.897 0.957 3.883 1.373 5.852 1.373 3.703 0 6.593-1.192 8.616-3.558 1.933-2.438 2.89-5.961 2.89-10.657v-71.346zM480.96 257.85c-2.583-2.962-5.437-5.401-8.543-7.369-3.107-1.933-5.708-2.89-7.694-2.89-2.619 0-4.479 0.704-5.672 2.186-1.12 1.445-1.734 3.811-1.734 7.062v105.971h-27.581v-115.508c0-8.254 1.626-14.323 4.841-18.514 3.287-4.1 8.038-6.141 14.432-6.141 5.184 0 10.548 1.409 16.057 4.371 5.509 2.998 10.801 7.225 15.913 12.806v-15.136h27.617v138.104h-27.617v-104.941zM512.009 866.889c-245.646 0-444.782-199.136-444.782-444.782 0-245.682 199.136-444.782 444.782-444.782s444.782 199.1 444.782 444.782c0 245.646-199.154 444.782-444.782 444.782zM583.86 647.217h31.049v-116.664c0-3.631 0.704-6.213 2.005-7.803 1.264-1.626 3.396-2.475 6.322-2.475 2.258 0 5.148 1.102 8.67 3.215 3.45 2.186 6.665 4.895 9.555 8.254v115.472h31.121v-152.156h-31.121v16.798c-5.672-6.177-11.65-10.928-17.882-14.143-6.177-3.215-12.174-4.877-18.026-4.877-7.189 0-12.589 2.294-16.256 6.846-3.594 4.479-5.437 11.253-5.437 20.392v127.14zM468.443 612.429c0 11.74 4.154 21.133 12.517 28.195 8.399 6.918 19.652 10.44 33.758 10.44 12.878 0 23.391-3.703 31.645-11.036 8.182-7.333 12.282-16.87 12.282-28.502v-78.571c0-13.059-4.028-23.246-12.029-30.615-8.11-7.369-19.182-11.072-33.307-11.072-13.583 0-24.474 3.811-32.638 11.397-8.146 7.694-12.246 17.99-12.246 30.904v78.86zM383.767 701.295l22.722-82.4h2.222l21.62 82.4h35.564l-40.712-120.692v-85.561h-35.005v81.749l-41.669 124.503h35.257zM790.871 267.206c0-55.036-44.632-99.703-99.667-99.703h-346.361c-55.072 0-99.703 44.668-99.703 99.703v80.16c0 55.072 44.632 99.703 99.703 99.703h346.361c55.036 0 99.667-44.632 99.667-99.703v-80.16zM665.176 366.223c-12.391 0-22.397-3.739-30.236-11.325-7.803-7.514-11.74-17.322-11.74-29.207v-62.098c0-13.33 3.594-23.77 10.693-31.32 7.098-7.586 16.834-11.397 29.207-11.397 13.763 0 24.095 3.558 30.977 10.693 6.99 7.189 10.404 17.845 10.404 32.024v7.098h-28.394v-6.286c0-8.146-0.957-13.402-2.745-15.768s-5.003-3.558-9.591-3.558c-4.407 0-7.514 1.373-9.356 4.154-1.806 2.854-2.673 7.875-2.673 15.172v25.991h52.778v35.275c0 13.059-3.36 23.065-10.151 30.092-6.809 6.972-16.545 10.458-29.17 10.458zM676.086 311.892h-24.384v13.962c0 5.78 0.885 9.988 2.818 12.391 1.933 2.583 5.075 3.811 9.483 3.811 4.154 0 7.297-1.228 9.176-3.811 1.897-2.402 2.89-6.593 2.89-12.391v-13.962z" />
<glyph unicode="&#xe60e;" glyph-name="instagram2" d="M695.611 519.427v81.948l-81.948-0.289 0.271-81.93zM509.805 330.207c46.926 0 85.127 38.165 85.127 85.091 0 18.514-6.033 35.673-16.13 49.635-15.443 21.422-40.604 35.492-68.998 35.492s-53.518-14.070-68.998-35.492c-10.097-13.962-16.093-31.121-16.093-49.635 0-46.926 38.165-85.091 85.091-85.091zM512.027 866.835c-245.646 0-444.782-199.1-444.782-444.745s199.136-444.782 444.782-444.782c245.61 0 444.745 199.136 444.745 444.782s-199.154 444.745-444.745 444.745zM751.586 464.933v-197.98c0-51.513-41.94-93.418-93.454-93.418h-296.672c-51.531 0-93.436 41.904-93.436 93.418v296.672c0 51.531 41.904 93.436 93.436 93.436h296.672c51.513 0 93.454-41.904 93.454-93.436v-98.692zM642.021 415.298c0-72.881-59.298-132.215-132.215-132.215s-132.179 59.334-132.179 132.215c0 17.575 3.486 34.282 9.699 49.635h-72.177v-197.98c0-25.54 20.772-46.311 46.311-46.311h296.672c25.54 0 46.311 20.772 46.311 46.311v197.98h-72.213c6.268-15.353 9.79-32.078 9.79-49.635z" />
<glyph unicode="&#xe60f;" glyph-name="login" horiz-adv-x="1104" d="M197.103 66.844v140.214c0 0 36.81 163.974 248.638 200.45 0 0 39.153 19.744 35.807 109.427 0 0-66.593 54.546-74.959 155.942 0 0 12.382 150.923 156.277 162.301 0 0 195.765 8.366 171.001-168.993 0 0-9.705-112.774-74.29-155.942 0 0-16.397-79.644-13.051-107.754 0 0 227.221-49.861 286.787-177.359v-158.285h-736.209z" />
<glyph unicode="&#xe610;" glyph-name="facebook5" d="M730.255 567.346h-138.085v90.564c0 34.011 22.542 41.94 38.418 41.94 15.841 0 97.446 0 97.446 0v149.519l-134.202 0.524c-148.977 0-182.88-111.516-182.88-182.88v-99.667h-86.157v-154.071h86.157c0-197.727 0-435.967 0-435.967h181.218c0 0 0 240.588 0 435.967h122.281l15.804 154.071z" />
<glyph unicode="&#xe800;" glyph-name="bin" d="M128 640v-640c0-35.2 28.8-64 64-64h576c35.2 0 64 28.8 64 64v640h-704zM320 64h-64v448h64v-448zM448 64h-64v448h64v-448zM576 64h-64v448h64v-448zM704 64h-64v448h64v-448zM848 832h-208v80c0 26.4-21.6 48-48 48h-224c-26.4 0-48-21.6-48-48v-80h-208c-26.4 0-48-21.6-48-48v-80h832v80c0 26.4-21.6 48-48 48zM576 832h-192v63.198h192v-63.198z" />
<glyph unicode="&#xe801;" glyph-name="copyright" horiz-adv-x="878" d="M657.143 337.143v-62.286q0-28.571-20.857-50.857t-53.714-34.571-67.429-18.571-67.143-6.286q-117.143 0-195.714 79.429t-78.571 197.714q0 116 77.714 193.714t193.714 77.714q19.429 0 43.143-2.571t53.143-10.286 52.857-19.429 39.429-32.286 16-46.286v-62.286q0-9.143-9.143-9.143h-67.429q-9.143 0-9.143 9.143v40q0 24.571-37.429 38.571t-78.571 14q-80 0-130.571-52.286t-50.571-135.714q0-86.286 52.286-142.571t133.429-56.286q38.857 0 78.857 13.714t40 37.714v40q0 4 2.571 6.571t6 2.571h68q3.429 0 6.286-2.571t2.857-6.571zM438.857 804.571q-74.286 0-142-29.143t-116.571-78-78-116.571-29.143-142 29.143-142 78-116.571 116.571-78 142-29.143 142 29.143 116.571 78 78 116.571 29.143 142-29.143 142-78 116.571-116.571 78-142 29.143zM877.714 438.857q0-119.429-58.857-220.286t-159.714-159.714-220.286-58.857-220.286 58.857-159.714 159.714-58.857 220.286 58.857 220.286 159.714 159.714 220.286 58.857 220.286-58.857 159.714-159.714 58.857-220.286z" />
<glyph unicode="&#xe802;" glyph-name="bicil_carr2" horiz-adv-x="1242" d="M268.19-5.861h962.11c0 0-106.901 221.679-345.084 280.568 0 0-150.037 49.512-322.579-20.63l-181.919 427.604 162.040 129.407v102.025h-323.704v-101.65h179.294l-116.653-131.282 19.88-48.387-258.438-105.776 39.010-105.776 260.689 111.777 15.004-37.134-275.692-319.203v-160.914h27.757l286.945 384.469 75.018-183.42c-0.375-0.75-147.411-96.023-203.675-221.679zM932.103 219.194c0 0 140.659-42.010 230.681-187.171h-243.059l12.378 187.171zM897.969 232.322l-16.504-200.299h-224.305l-82.895 195.048c195.048 60.765 323.704 5.251 323.704 5.251zM486.869 177.184l61.89-151.537-214.927 7.877c50.637 82.52 153.037 143.66 153.037 143.66zM509.374 784.457l64.516-480.867h439.232l76.519 485.744-580.267-4.876zM648.908 341.099h-37.509l-12.378 61.89h49.887v-61.89zM648.908 432.996h-61.89l-13.128 138.784h75.018v-138.784zM648.908 613.040h-84.396l-15.754 135.033h100.149v-135.033zM776.44 341.099h-93.773v61.89h93.773v-61.89zM776.44 432.996h-93.773v146.286h93.773v-146.286zM682.667 613.040v135.033h93.773l7.502-135.033h-101.275zM897.969 341.099h-85.896v61.89h85.896v-61.89zM897.969 432.996h-85.896v146.286h85.896v-146.286zM897.969 613.040h-85.896v135.033h85.896v-135.033zM980.114 341.099h-42.385v61.89h48.762l-6.377-61.89zM995.868 432.996h-58.139v146.286h84.396l-26.256-146.286zM937.729 620.542v127.531h116.278l-26.256-135.033-90.022 7.502z" />
<glyph unicode="&#xe80b;" glyph-name="uniE80B" horiz-adv-x="1139" d="M976.011 434.144c0-224.401-181.819-406.22-406.22-406.22-225.077-0.676-406.896 181.819-406.896 406.22s181.819 406.22 406.22 406.22c224.401 0 406.896-181.819 406.896-406.22z" />
<glyph unicode="&#xe80e;" glyph-name="chevron-thin-down" d="M891.802 660.019c13.926 13.722 36.301 13.722 50.125 0s13.875-35.891 0-49.613l-404.89-400.896c-13.824-13.722-36.198-13.722-50.125 0l-404.89 400.896c-13.824 13.722-13.824 35.891 0 49.613 13.875 13.722 36.301 13.722 50.125 0l379.853-365.619 379.802 365.619z" />
<glyph unicode="&#xe80f;" glyph-name="copyright2" horiz-adv-x="878" d="M657.143 337.143v-62.286q0-28.571-20.857-50.857t-53.714-34.571-67.429-18.571-67.143-6.286q-117.143 0-195.714 79.429t-78.571 197.714q0 116 77.714 193.714t193.714 77.714q19.429 0 43.143-2.571t53.143-10.286 52.857-19.429 39.429-32.286 16-46.286v-62.286q0-9.143-9.143-9.143h-67.429q-9.143 0-9.143 9.143v40q0 24.571-37.429 38.571t-78.571 14q-80 0-130.571-52.286t-50.571-135.714q0-86.286 52.286-142.571t133.429-56.286q38.857 0 78.857 13.714t40 37.714v40q0 4 2.571 6.571t6 2.571h68q3.429 0 6.286-2.571t2.857-6.571zM438.857 804.571q-74.286 0-142-29.143t-116.571-78-78-116.571-29.143-142 29.143-142 78-116.571 116.571-78 142-29.143 142 29.143 116.571 78 78 116.571 29.143 142-29.143 142-78 116.571-116.571 78-142 29.143zM877.714 438.857q0-119.429-58.857-220.286t-159.714-159.714-220.286-58.857-220.286 58.857-159.714 159.714-58.857 220.286 58.857 220.286 159.714 159.714 220.286 58.857 220.286-58.857 159.714-159.714 58.857-220.286z" />
<glyph unicode="&#xe900;" glyph-name="carta" horiz-adv-x="1038" d="M900.608 126.995h-762.861c-39.673 0-71.948 32.275-71.948 71.948v442.679c0 39.673 32.275 71.948 71.948 71.948h762.861c39.673 0 71.948-32.275 71.948-71.948v-442.679c0-39.673-32.275-71.948-71.948-71.948zM137.747 665.72c-13.288 0-24.097-10.809-24.097-24.097v-442.679c0-13.288 10.809-24.097 24.097-24.097h762.861c13.288 0 24.097 10.809 24.097 24.097v442.679c0 13.288-10.809 24.097-24.097 24.097h-762.861zM506.794 347.973c-24.901 0-46.425 11.446-62.081 33.462-29.572 41.582-227.036 188.162-352.548 276.542l27.548 39.127c32.644-22.987 320.201-226.352 363.994-287.94 7.685-10.809 15.245-12.704 20.255-13.188 19.37-1.847 43.563 14.939 52.841 22.614 2.593 2.436 5.728 5.096 9.417 7.020l351.821 270.695 29.179-37.926-361.429-277.973c-3.019-2.397-6.685-5.072-11.13-8.111-14.695-10.044-29.375-17.087-43.625-20.939-8.35-2.263-16.461-3.383-24.241-3.383zM555.434 415.419c-4.158-8.010-3.967-19.102 3.45-27.27 7.111-7.833 17.542-9.307 25.782-6.445l-29.232 33.715zM389.546 451.352l30.586-36.797-309.224-257.030-30.586 36.797 309.224 257.030zM641.664 451.459l316.208-257.042-30.184-37.132-316.208 257.042 30.184 37.132zM447.541 594.623v185.425h-84.045l145.422 134.733 136.048-130.732h-73.369v-189.426z" />
<glyph unicode="&#xe901;" glyph-name="cerrar" horiz-adv-x="1038" d="M532.336-20.935c-242.080 0-439.028 196.948-439.028 439.028s196.948 439.028 439.028 439.028c242.080 0 439.028-196.948 439.028-439.028s-196.948-439.028-439.028-439.028zM532.336 814.056c-218.332 0-395.963-177.631-395.963-395.963s177.631-395.963 395.963-395.963c218.337 0 395.963 177.631 395.963 395.963s-177.626 395.963-395.963 395.963zM396.229 581.3l301.44-296.661-26.85-27.282-301.44 296.661 26.85 27.282zM670.543 580.993l27.397-26.735-289.497-296.668-27.397 26.735 289.497 296.668z" />
<glyph unicode="&#xe902;" glyph-name="user" horiz-adv-x="1038" d="M500.037 494.257c-111.252 0-201.771 90.514-201.771 201.771 0 111.252 90.519 201.766 201.771 201.766 111.257 0 201.771-90.514 201.771-201.771 0-111.252-90.514-201.766-201.771-201.766zM500.037 821.234c-69.039 0-125.21-56.167-125.21-125.21s56.167-125.21 125.21-125.21c69.043 0 125.21 56.167 125.21 125.21s-56.167 125.21-125.21 125.21zM722.695 112.788c-20.848 230.706-119.511 250.976-127.933 252.268h-177.573c-136.675-43.965-130.201-245.234-130.12-247.282l-76.499-3.082c-0.44 10.929-8.493 268.355 190.383 325.436l5.177 1.488 191.727-0.024c7.044-0.244 172.855-9.541 201.092-321.914l-76.255-6.89z" />
<glyph unicode="&#xe903;" glyph-name="pdf" horiz-adv-x="1038" d="M888.066-37.682l-573.139 0.421c-32.998 6.283-94.447 42.63-91.222 135.182l0.024 683.726c1.56 34.352 26.251 101.807 108.511 111.209l2.713 0.153h350.505v-288.347c3.168-6.268 12.637-19.647 35.491-19.647 2.359 0 4.847 0.139 7.383 0.416l2.584 0.139h257.196v-531.911l-0.823-3.058c-0.852-3.168-21.748-77.652-97.605-88.064l-1.617-0.22zM322.072 10.168h562.602c37.381 5.977 52.076 40.362 55.588 50.358v477.194h-208.121c-3.79-0.368-7.546-0.555-11.192-0.555-50.688 0-75.503 34.811-82.174 55.382l-1.168 3.598v249.014h-301.223c-58.196-7.369-64.239-57.459-64.833-65.369l-0.014-683.18c-2.541-68.589 40.883-83.896 50.535-86.442zM678.32 886.145l311.404-307.422-33.615-34.050-311.404 307.422 33.615 34.050zM379.215 711.178h157.907v-47.85h-157.907v47.85zM379.215 608.299h157.907v-47.85h-157.907v47.85zM109.759 469.461h538.916c53.014 0 95.404-35.314 95.404-78.853v-184.109c0-43.568-42.707-78.853-95.404-78.853h-538.916c-53.018-0.005-95.404 35.309-95.404 78.853v184.109c0 43.568 42.707 78.853 95.404 78.853zM521.986 311.698v52.588h126.909v26.294h-158.634v-184.057h31.725v78.881h95.179v26.294h-95.179zM109.535 337.992v-131.469h31.725v78.881h63.297c35.122 0 63.612 23.351 63.612 52.588 0 29.055-28.366 52.588-63.612 52.588h-95.021v-52.588zM141.264 364.286v-52.588h63.483c17.513 0 31.696 11.676 31.696 26.294 0 14.513-14.054 26.294-31.696 26.294h-63.483zM299.898 390.579v-184.057h95.021c35.122 0 63.612 23.322 63.612 52.746v78.566c0 29.131-28.366 52.746-63.612 52.746 0 0-95.021 0-95.021 0zM331.623 364.286v-131.469h63.488c17.513 0 31.696 11.676 31.696 26.294v78.881c0 14.513-14.054 26.294-31.696 26.294h-63.488z" />
<glyph unicode="&#xe904;" glyph-name="arrows" d="M1011.727 479.751c-0.89 0.89-2.050 1.158-2.94 1.959l-309.847 309.849c-17.283 17.283-45.301 17.283-62.541 0-17.281-17.283-17.281-45.301 0-62.539l236.485-236.484h-828.34c-24.59 0-44.545-19.957-44.545-44.547 0-24.587 19.955-44.543 44.545-44.543h828.34l-236.484-236.484c-17.283-17.283-17.283-45.301 0-62.539s45.3-17.283 62.539 0l309.937 309.981c0.89 0.758 2.003 1.024 2.85 1.827 1.38 1.38 1.38 3.296 2.54 4.811 3.787 4.678 6.459 9.798 8.062 15.324 0.579 2.137 0.981 4.009 1.203 6.191 1.827 13.23-1.603 27.040-11.805 37.194z" />
<glyph unicode="&#xe905;" glyph-name="uniE901" horiz-adv-x="1143" d="M881.53 660.22v-424.441c0-46.006-34.133-84.591-77.171-84.591h-465.994c-43.038 0-77.171 37.101-77.171 84.591v424.441c0 46.006 34.133 84.591 77.171 84.591h465.994c43.038 0 77.171-38.586 77.171-84.591z" />
<glyph unicode="&#xe906;" glyph-name="linkedin2" d="M384 576h177.106v-90.782h2.532c24.64 44.194 84.958 90.782 174.842 90.782 186.946 0 221.52-116.376 221.52-267.734v-308.266h-184.61v273.278c0 65.184-1.334 149.026-96.028 149.026-96.148 0-110.82-70.986-110.82-144.292v-278.012h-184.542v576zM64 576h192v-576h-192v576zM256 736c0-53.019-42.981-96-96-96s-96 42.981-96 96c0 53.019 42.981 96 96 96s96-42.981 96-96z" />
<glyph unicode="&#xe907;" glyph-name="lupa-02" horiz-adv-x="1143" d="M923.084 185.322c8.904 8.904 7.42 23.745-1.484 32.649l-194.412 175.119c-8.904 8.904-23.745 7.42-32.649-1.484l-69.751-77.171c-8.904-8.904-7.42-23.745 1.484-32.649l194.412-176.603c8.904-8.904 23.745-7.42 32.649 1.484l69.751 78.655zM458.574 805.658c105.368 0 203.316-65.299 240.417-170.667 46.006-132.081-23.745-277.519-157.31-323.525-28.197-8.904-54.91-13.357-83.107-13.357-105.368 0-203.316 65.299-240.417 170.667-46.006 132.081 23.745 277.519 157.31 323.525 26.713 7.42 54.91 13.357 83.107 13.357zM458.574 735.907c-20.777 0-41.554-2.968-60.846-10.388v0c-47.49-16.325-84.591-48.974-106.852-93.496s-25.229-94.98-8.904-140.986c25.229-74.203 96.464-124.661 175.119-124.661 20.777 0 41.554 2.968 60.846 10.388 47.49 16.325 84.591 48.974 106.852 93.496s25.229 94.98 8.904 140.986c-26.713 74.203-96.464 124.661-175.119 124.661v0z" />
<glyph unicode="&#xe908;" glyph-name="usuarioentrar-03" horiz-adv-x="1143" d="M571.362 804.174c197.38 0 356.174-160.278 356.174-356.174s-160.278-356.174-356.174-356.174c-197.38 0-356.174 160.278-356.174 356.174s158.794 356.174 356.174 356.174zM571.362 835.339c-213.704 0-387.339-173.635-387.339-387.339s173.635-387.339 387.339-387.339c213.704 0 387.339 173.635 387.339 387.339s-173.635 387.339-387.339 387.339v0zM571.362 698.806c81.623 0 148.406-63.814 148.406-140.986 0-78.655-66.783-140.986-148.406-140.986s-148.406 63.814-148.406 140.986c0 77.171 66.783 140.986 148.406 140.986zM691.571 390.122c0 0-74.203 26.713-120.209 26.713s-120.209-26.713-120.209-26.713c-86.075-37.101-145.438-112.788-145.438-200.348 0 0 68.267-112.788 267.13-112.788 195.896 0 267.13 112.788 267.13 112.788-2.968 86.075-60.846 163.246-148.406 200.348z" />
<glyph unicode="&#xe909;" glyph-name="icono_home-01" d="M935.094 364.1h-138.144v-238.174h-246.644v148.044h-98.804v-148.044h-246.588v238.174h-142.043l436.151 427.896 0.949-1.004 100.425-98.559 48.532-48.541v123.484h98.638v-219.31z" />
<glyph unicode="&#xe90a;" glyph-name="singout" horiz-adv-x="1134" d="M489.5 98.095h-277.812c0 0-82.196 25.256-95.053 120.309v505.571c0 0 9.643 75.767 123.523 117.094h227.76v-123.523h-211.229c0 0-53.266 3.674-62.909-55.562v-442.203c0 0 4.592-46.378 75.767-61.532h219.953v-60.154zM336.129 342.845v241.995h344.854v239.239l368.732-354.956-362.762-377.457-3.674 250.26z" />
<glyph unicode="&#xe90b;" glyph-name="attach_money" d="M504 472.667q44-12 73-24t61-33 49-53 17-76q0-62-41-101t-109-51v-92h-128v92q-66 14-109 56t-47 108h94q8-90 126-90 62 0 89 23t27 53q0 72-128 104-200 46-200 176 0 58 42 99t106 55v92h128v-94q66-16 101-60t37-102h-94q-4 90-108 90-52 0-83-22t-31-58q0-58 128-92z" />
<glyph unicode="&#xe90c;" glyph-name="flder" horiz-adv-x="672" d="M126.16 12.443l-26.851 25.612 410.261 430.202-386.482 387.135 26.258 26.213 412.064-412.754z" />
<glyph unicode="&#xe90d;" glyph-name="flizq" horiz-adv-x="672" d="M498.867 12.139l-412.057 412.754 435.249 456.408 26.859-25.605-410.261-430.21 386.474-387.127z" />
<glyph unicode="&#xe90e;" glyph-name="youtube52" horiz-adv-x="985" d="M493.493-1.861c-247.373 0-448.537 201.253-448.537 448.477 0 247.303 201.164 448.447 448.537 448.447 247.209 0 448.522-201.144 448.522-448.447-0.005-247.224-201.313-448.477-448.522-448.477zM493.493 789.966c-189.31 0-343.31-154.035-343.31-343.35 0-189.275 154-343.275 343.31-343.275 189.205 0 343.165 153.995 343.165 343.275 0 189.315-153.965 343.35-343.165 343.35zM370.923 248.335v396.643l245.031-198.246z" />
<glyph unicode="&#xe90f;" glyph-name="menu3" horiz-adv-x="966" d="M494.704 846.457c-220.070 0-398.453-178.383-398.453-398.453 0-220.052 178.383-398.453 398.453-398.453 220.061 0 398.453 178.4 398.453 398.453 0.009 220.061-178.383 398.453-398.453 398.453zM679.5 313.497h-370.662v34.48h370.662v-34.48zM679.5 425.558h-370.662v34.48h370.662v-34.48zM679.5 537.618h-370.662v34.48h370.662v-34.48z" />
<glyph unicode="&#xe910;" glyph-name="dobleflechasderc" horiz-adv-x="961" d="M897.108 561.009v-225.773l-313.007-288.453v274.984l152.001 127.447-152.001 129.72v274.981l313.007-292.906zM452.156 561.009v-225.773l-312.969-288.453v274.984l152.001 127.447-152.001 129.72v274.981l312.969-292.906z" />
<glyph unicode="&#xe911;" glyph-name="comidas" horiz-adv-x="941" d="M636.694 510.056l113.796 136.677c9.059 9.083 9.067 23.825 0 32.892-4.139 4.131-9.478 6.283-14.89 6.644-0.131 6.767-2.735 13.51-7.868 18.668-5.117 5.108-11.752 7.671-18.438 7.86-0.189 6.677-2.776 13.321-7.835 18.421-5.059 5.043-11.621 7.58-18.249 7.843-0.468 5.273-2.571 10.414-6.587 14.446-9.083 9.067-23.833 9.067-32.892 0l-136.775-113.714c-23.308-23.324-31.964-56.635-23.636-88.189l-36.941-32.375-30.42 26.683c0 0-115.545 143.502-156.888 188.869-16.582 18.167-45.696 17.386-63.082 0-13.19-13.181-15.070-32.161-9.527-48.841 6.307-18.914 24.392-88.681 67.41-140.512 35.487-42.698 78.391-58.623 94.89-63.46l23.94-27.316-152.634-133.794c-26.921-26.938-26.921-70.753 0-97.699 26.938-26.938 70.745-26.938 97.674 0l128.932 147.115 131.371-149.825c26.954-26.938 70.728-26.954 97.674-0.016 26.938 26.946 26.938 70.753 0 97.699l-155.344 136.2 28.104 32.095c31.578-8.352 64.905 0.296 88.213 23.628zM305.58 235.051c-20.294-20.146-53.252-20.113-73.512 0.148-20.22 20.244-20.261 53.178-0.115 73.471l151.961 133.186 51.395-58.614-129.729-148.191zM663.698 232.472c-20.253-20.244-53.186-20.294-73.496-0.14l-231.255 263.901c0 0-57.555 16.557-91.975 60.060-41.934 52.989-65.53 138.303-65.53 138.303-3.145 9.593-1.043 20.548 6.57 28.162 10.709 10.701 28.112 10.751 38.904 0.123l156.864-188.885 260.057-228.011c20.146-20.335 20.113-53.276-0.14-73.512zM542.494 505.686l-35.011-40.021-48.184 42.255 43.856 38.411-2.226 4.919c-8.919 26.806-2.168 55.822 17.551 75.943l137.662 114.543c2.472 2.094 6.102 2.004 8.459-0.279 4.607-4.46 0.107-8.96 0.107-8.96-0.501-0.452-125.187-125.269-125.187-125.269l12.023-12.032 124.694 124.703c3.983 3.031 9.568 2.907 13.198-0.723 3.688-3.688 3.761-9.453 0.567-13.411l-124.218-124.867 12.065-11.958 123.577 123.988c3.942 3.909 10.315 3.917 14.257-0.016 3.917-3.917 3.942-10.323-0.008-14.249l-123.561-124.046 12.007-12.023 125.483 124.99c2.472 2.431 6.422 2.431 8.853 0 2.332-2.308 2.365-5.995 0.263-8.451l-114.617-137.539c-20.121-19.743-49.145-26.494-75.943-17.575l-5.667 1.667z" />
<glyph unicode="&#xe912;" glyph-name="hogar" horiz-adv-x="941" d="M788.639 544.672c-4.008 92.673-79.812 166.719-173.396 166.719-12.13 0-23.907-1.232-35.249-3.581-30.034 24.49-67.813 39.766-109.583 39.766-41.754 0-79.549-15.276-109.517-39.774-11.408 2.349-23.193 3.581-35.249 3.581-93.65 0-169.454-74.038-173.462-166.719-25.090-12.689-42.444-38.452-42.444-68.527 0-35.438 24.113-65.029 56.684-74.038l47.626-122.715c3.614-12.533 10.792-22.027 19.456-29.352l-26.749-53.317c-8.237-16.483-1.56-36.522 14.914-44.751 4.796-2.382 9.864-3.515 14.882-3.515 12.245 0 24.006 6.751 29.87 18.446l29.837 59.641c4.23-0.394 7.359-0.558 7.359-0.558h333.561c0 0 2.866 0.164 6.751 0.526l29.804-59.616c5.864-11.695 17.625-18.446 29.87-18.446 5.026 0 10.11 1.15 14.882 3.515 16.483 8.229 23.168 28.268 14.923 44.751l-26.223 53.161c8.706 7.359 15.933 16.869 19.579 29.508l47.618 122.715c32.58 9.018 56.693 38.6 56.693 74.038 0.008 30.075-17.354 55.847-42.435 68.544zM325.652 693.274c10.619 0 21.238-1.068 31.594-3.187 1.166-0.246 2.415-0.394 3.655-0.394 4.106 0 8.147 1.445 11.399 4.123 28.605 23.349 62.548 35.652 98.118 35.652s69.521-12.303 98.118-35.66c3.252-2.677 7.293-4.123 11.465-4.123 1.166 0 2.415 0.148 3.646 0.394 10.299 2.135 20.984 3.187 31.603 3.187 79.672 0 145.604-60.002 154.917-137.728-6.537-0.361-13.034-1.265-19.382-2.53-17.296-0.69-32.966-7.112-45.441-17.427-10.389-8.574-18.635-19.678-23.456-32.547l-11.621-26.1c-4.041-6.537-7.695-13.321-10.521-20.614l-15.374-34.568c-2.636 1.79-10.102 6.751-23.612 12.385-25.115 10.488-71.344 23.39-148.249 23.39-80.329 0-128.899-14.142-154.441-24.86-13.362-5.601-20.162-10.069-22.051-11.268l-12.574 27.973c-3.425 10.594-8.476 20.335-14.331 29.435l-8.533 18.955c-4.361 14.857-13.132 27.726-24.622 37.426-12.894 10.849-29.254 17.518-47.371 17.937-5.93 1.117-11.851 2.053-17.912 2.415 9.034 77.479 75.106 137.736 154.975 137.736zM278.938 229.138l-27.431-54.82c-2.833-5.667-8.558-9.215-14.947-9.215-2.571 0-5.084 0.591-7.433 1.774-8.237 4.106-11.564 14.142-7.465 22.372l25.772 51.346c10.356-5.568 21.337-9.133 30.88-11.202 0.23-0.074 0.427-0.189 0.624-0.255zM711.077 166.902c-2.382-1.199-4.878-1.807-7.474-1.807-6.381 0-12.122 3.548-14.947 9.215l-26.971 53.941c11.301 2.48 22.511 6.225 32.547 10.159l24.26-49.186c4.115-8.213 0.788-18.249-7.416-22.322zM769.971 418.147c-5.084-1.413-9.182-5.125-11.079-10.036l-48.143-124.103c-11.399-39.553-73.225-41.376-73.553-41.376h-333.241c-0.263 0-8.96 0.329-20.392 2.776-10.192 3.088-21.074 7.819-32.539 13.091-9.576 6.258-17.855 14.701-21.402 26.905l-47.626 122.707c-1.889 4.911-6.061 8.623-11.145 10.036-26.117 7.26-44.423 31.102-44.423 57.982 0 31.619 24.589 57.432 55.576 59.97 1.626 0.131 3.187 0.493 4.878 0.493 16.064 0 30.625-7.145 41.63-18.052 7.162-7.063 13.132-15.407 16.097-25.468 0.189-0.756 0.46-1.478 0.788-2.152l34.658-76.88c2.020-4.468 6.127-7.654 10.816-9.034 1.437-0.427 2.932-0.608 4.435-0.608 3.384 0 6.776 1.002 9.576 2.858 1.831 1.199 5.856 3.515 11.498 6.242 20.811 10.143 68.798 27.332 156.133 27.332 81.865 0 127.019-14.824 149.39-25.624 6.841-3.334 11.736-6.291 14.668-8.311 2.661-1.659 5.733-2.505 8.796-2.505 1.626 0 3.252 0.214 4.887 0.756 4.616 1.396 8.336 4.714 10.282 9.116l37.007 82.941c3.137 8.377 8.443 15.276 14.561 21.337 11.079 10.989 25.772 18.052 41.852 18.052 1.593 0 3.137-0.361 4.698-0.493 31.143-2.415 55.765-28.235 55.765-59.97-0.016-26.88-18.257-50.714-44.447-57.982z" />
<glyph unicode="&#xe913;" glyph-name="joyeria" horiz-adv-x="941" d="M470.411 662.14c141.366 0 256.386-115.012 256.386-256.386s-115.020-256.394-256.386-256.394c-141.374 0-256.378 115.012-256.378 256.378 0 141.383 115.003 256.402 256.378 256.402zM470.411 684.248c-153.817 0-278.503-124.703-278.503-278.503 0-153.817 124.686-278.503 278.503-278.503 153.825 0 278.503 124.686 278.503 278.503s-124.678 278.503-278.503 278.503v0zM470.411 596.38c105.107 0 190.626-85.511 190.626-190.643 0-105.107-85.511-190.61-190.626-190.61s-190.618 85.503-190.618 190.61c0 105.115 85.511 190.643 190.618 190.643zM470.411 618.497c-117.5 0-212.735-95.26-212.735-212.76 0-117.484 95.235-212.727 212.735-212.727s212.735 95.243 212.735 212.727c0.008 117.5-95.227 212.76-212.735 212.76v0zM572.126 812.778l16.795-26.462-78.637-104.811h-79.754l-78.613 104.811 16.77 26.462h203.438zM584.289 834.895h-227.765l-31.48-49.622 94.414-125.877h101.871l94.439 125.877-31.48 49.622zM356.064 780.083h228.701v-22.117h-228.701v22.117z" />
<glyph unicode="&#xe914;" glyph-name="belleza" horiz-adv-x="941" d="M406.721 29.568h-160.215c-16.023 0-29.771 13.732-29.771 29.747v352.5c0 16.023 13.748 29.755 29.771 29.755h160.215c16.023 0 29.747-13.732 29.747-29.755v-352.5c0-16.015-13.724-29.747-29.747-29.747zM244.198 423.255c-6.866 0-13.715-6.866-13.715-13.715v-352.5c0-6.866 6.849-13.732 13.715-13.732h160.231c6.866 0 13.732 6.866 13.732 13.732v354.775c0 6.882-6.866 13.748-13.732 13.748h-160.231v-2.308zM418.161 423.255c-2.283 0-2.283 0-4.591 2.308-2.283 2.283-4.575 2.283-6.849 2.283h-160.247c-2.283 0-4.558 0-6.841-2.283-2.308-2.308-6.866-2.308-9.174 0-2.283 2.283-4.575 4.558-4.575 6.866v11.44c0 16.023 13.748 29.755 29.755 29.755h141.908c16.015 0 29.755-13.732 29.755-29.755v-11.44c0-2.308-2.291-6.866-4.575-6.866-2.283-2.308-4.566-2.308-4.566-2.308zM253.355 457.593c-6.882 0-13.715-4.575-13.715-13.732h169.364c0 6.849-6.849 13.732-13.715 13.732h-141.933zM241.915 453.026h-4.583c-2.291 2.283-4.558 4.575-4.558 6.849v173.963c0 16.031 13.699 29.763 29.747 29.763h121.311c16.031 0 29.747-13.732 29.747-29.763v-173.963c0-2.283-2.283-6.849-4.575-6.849-2.283-2.308-6.849-2.308-9.149 0-2.291 2.283-4.575 2.283-6.882 2.283h-141.908c-2.283 0-4.591 0-6.866-2.283 2.275 2.275 0 0-2.283 0zM253.355 473.624h144.208v162.506c0 6.882-6.866 13.732-13.732 13.732h-121.319c-6.866 0-13.732-6.849-13.732-13.732v-162.506h4.575zM280.835 766.598c-6.882 0-13.732 2.308-18.314 6.882-4.591 2.283-4.591 9.157 0 11.465 2.283 4.558 9.157 4.558 11.44 0 4.566-4.616 25.189-2.308 50.352 20.573 22.905 20.598 27.463 43.503 22.905 50.344-2.308 4.616-2.308 9.174 2.283 11.457 4.558 2.308 9.157 2.308 11.424-2.283 9.174-16.015 2.308-45.786-27.463-70.958-16.015-18.323-36.612-27.48-52.627-27.48zM260.238 649.87c-2.308 0-4.591 0-4.591 2.291-2.291 2.291-2.291 4.575-2.291 6.866v119.019c0 2.283 25.172 73.25 100.697 96.147 4.591 2.283 6.866 0 9.174-4.575 2.283-2.291 27.463-50.369 32.054-100.73 2.283-27.463 2.283-73.233 2.283-107.563v-2.291c0-4.591-4.591-9.157-9.149-9.157h-128.177c2.275-0.008 2.275-0.008 0-0.008zM269.387 668.184h112.153c0 34.329-2.283 75.533-2.283 100.705-2.291 36.637-18.339 73.258-25.205 86.998-57.21-20.614-80.099-73.25-82.382-82.423v-105.279h-2.283zM674.522 29.568h-203.709c-4.575 0-9.174 4.558-9.174 9.149v350.217c0 16.031 13.765 29.747 29.771 29.747h160.231c16.015 0 29.747-13.715 29.747-29.747v-350.225c2.291-6.849-2.283-9.141-6.866-9.141zM479.954 45.583h185.42v343.351c0 6.849-6.866 13.715-13.732 13.715h-160.231c-6.866 0-13.748-6.866-13.748-13.715v-343.351h2.291zM425.027 352.313h-199.135c-4.575 0-9.157 4.558-9.157 9.149s4.591 9.174 9.157 9.174h199.135c4.575 0 9.149-4.591 9.149-9.174s-4.575-9.149-9.149-9.149z" />
<glyph unicode="&#xe915;" glyph-name="viajes" horiz-adv-x="941" d="M343.573 171.985v0c-11.137 0-22.273 5.199-28.95 14.849l-63.854 89.839c-0.747 1.495-1.495 2.234-2.973 2.973l-89.108 63.115c-8.18 5.946-14.118 15.604-14.865 25.254-0.739 10.397 2.973 20.047 10.406 27.472l23.768 23.768c8.155 8.172 20.047 11.876 31.915 9.642l87.63-17.813 63.854 63.854c2.234 2.234 3.712 5.946 3.712 9.658 0 3.72-2.226 6.685-4.451 8.919l-197.517 160.379c-7.416 5.93-12.623 15.588-13.362 25.246s2.973 19.308 10.397 26.733l33.41 33.41c8.919 8.919 23.020 12.631 35.643 8.18l304.439-98.758 155.944 155.197c11.876 11.876 27.48 18.561 44.554 18.561s32.679-6.685 44.554-18.561c24.507-24.499 24.507-64.61 0-89.108l-155.205-155.197 98.775-304.439c4.46-12.623 0.747-25.993-8.172-35.643l-34.157-34.165c-6.685-6.685-15.588-10.389-24.507-10.389-10.389 0-20.787 4.46-27.472 13.362l-158.17 197.509c-4.46 5.946-14.101 5.946-19.308 0.747l-63.854-63.862c-0.739-0.739-1.487-1.478-2.234-2.226l17.074-83.171c2.234-11.128-1.478-23.012-9.642-31.915l-23.768-23.76c-6.677-5.938-15.588-9.658-24.507-9.658zM202.494 408.111c-3.712 0-6.685-1.487-8.919-3.712l-23.76-23.76c-2.973-2.973-3.712-6.693-3.712-10.406s2.234-7.433 5.207-9.642l89.839-63.123c2.973-2.226 5.938-5.199 8.155-8.172l63.115-89.839c2.234-3.712 5.946-5.199 10.406-5.199v0c3.72 0 6.685 1.487 8.903 3.712l23.768 23.76c2.973 2.973 4.46 7.433 3.712 11.145l-17.822 90.595c-0.739 4.46 0.739 8.903 4.46 11.137 2.226 1.478 3.712 2.965 5.199 4.451l63.862 63.862c6.669 6.685 15.588 10.397 24.507 10.397 10.389 0 20.787-4.46 27.472-13.362l158.161-197.509c4.46-5.946 14.101-5.946 19.308-0.747l33.418 33.41c3.712 3.72 4.46 8.172 2.973 12.631l-100.992 311.116c-1.478 3.712 0 8.894 2.973 11.867l160.403 160.395c15.588 15.588 15.588 41.581 0 57.908-7.433 7.433-17.838 11.892-28.966 11.892s-20.787-4.46-28.966-11.892l-159.64-160.371c-2.973-2.973-8.172-4.46-11.892-2.973l-311.124 100.984c-4.443 1.487-9.658 0-12.623-2.973l-33.41-33.41c-2.226-2.226-3.712-5.946-3.712-9.658 0-3.72 2.234-6.685 4.46-8.911l197.509-158.161c7.433-5.946 12.631-15.596 13.362-25.246 0.747-9.658-2.965-19.308-10.389-26.741l-63.854-63.854c-1.495-1.487-2.234-2.234-2.973-3.712-2.973-2.973-6.685-5.207-11.137-3.712l-94.299 17.074c-0.747 0.747-1.495 0.747-2.981 0.747z" />
<glyph unicode="&#xe916;" glyph-name="juguetes" horiz-adv-x="941" d="M597.996 21.084c-6.488 0-13.050 0.452-19.653 1.363-29.697 4.041-56.233 16.787-76.789 36.801l-1.782 1.733-2.357-0.829c-15.686-5.519-32.679-8.311-50.517-8.311-23.932 0-43.421 5.010-52.923 7.983l-2.267 0.723-1.733-1.651c-20.45-19.809-46.854-32.408-76.338-36.448-6.652-0.903-13.255-1.363-19.67-1.363-37.089 0-71.591 14.742-97.116 41.507-25.944 27.176-39.799 64.47-38 102.347 0.501 10.841 1.807 21.665 3.909 32.186l0.673 3.343-3.178 1.199c-6.726 4.558-10.233 13.732-13.962 24.458-11.835 33.664 5.347 90.266 27.611 131.445 31.159 57.629 76.494 91.868 100.754 107.127l4.607 2.924-4.139 3.531c-3.794 3.26-7.449 6.619-11.022 10.061-3.129 3.088-5.831 5.88-8.508 8.763-40.744 44.037-61.087 101.066-55.814 156.478l0.238 2.554-2.217 1.298c-3.704 2.16-6.932 4.345-9.929 6.636-50.804 38.641-62.474 113.837-26.018 167.622 17.92 26.511 44.579 43.848 75.056 48.858 5.921 0.969 11.843 1.462 17.715 1.462 23.809 0 46.706-7.843 66.219-22.684 3.737-2.85 7.326-6.036 10.865-9.568l2.053-2.029 2.603 1.306c34.453 17.419 72.363 26.757 109.608 26.971 37.27-0.222 75.221-9.527 109.673-26.971l2.62-1.339 2.053 2.086c3.548 3.573 7.12 6.718 10.841 9.527 19.522 14.865 42.402 22.725 66.211 22.725 5.872 0 11.785-0.493 17.707-1.462 30.469-5.010 57.128-22.347 75.081-48.841 36.415-53.769 24.745-128.965-26.026-167.622-3.031-2.332-6.283-4.492-9.954-6.636l-2.209-1.298 0.23-2.554c5.248-55.387-15.095-112.408-55.839-156.445-6.127-6.661-12.648-12.952-19.571-18.889l-4.123-3.531 4.607-2.907c24.285-15.317 69.677-49.63 100.787-107.193 22.257-41.171 39.635-97.19 28.244-129.565-1.963-5.593-9.453-19.563-16.163-25.254l-1.815-1.56 0.485-2.349c2.324-11.005 3.77-22.413 4.279-33.869 1.799-37.935-12.048-75.254-38.025-102.413-25.46-26.716-59.937-41.433-97.075-41.433zM607.367 311.282c-52.759 0-106.774-47.79-128.456-113.624-11.941-36.062-7.408-75.015 12.442-106.881 3.917-6.266 8.352-12.163 13.198-17.526l2.332-2.513c19.103-19.965 44.357-32.596 73.044-36.555 6.028-0.829 12.007-1.232 17.92-1.232 33.952 0 65.423 13.403 88.624 37.754 23.751 24.844 36.432 58.992 34.781 93.724-3.425 75.319-47.872 138.163-103.399 146.187-3.408 0.452-6.948 0.665-10.488 0.665zM284.556 311.282c-3.548 0-7.104-0.222-10.586-0.665-55.485-7.983-99.867-70.827-103.292-146.179-1.626-34.699 11.038-68.823 34.748-93.642 23.226-24.375 54.763-37.787 88.821-37.787 5.864 0 11.802 0.394 17.781 1.199 28.925 3.959 54.377 16.787 73.578 37.13 5.675 6.061 10.619 12.475 14.964 19.44 19.842 31.833 24.392 70.786 12.442 106.856-21.632 65.85-75.664 113.648-128.456 113.648zM284.835 323.191c57.58 0 116.211-51.231 139.412-121.803 13.050-39.405 8.090-82.021-13.625-116.884-2.037-3.277-4.205-6.414-6.447-9.461l-3.605-4.87 5.897-1.437c9.272-2.25 23.891-4.928 40.711-4.928v0c13.436 0 26.347 1.692 38.378 5.051l5.626 1.56-3.466 4.706c-2.234 3.022-4.386 6.16-6.406 9.379-21.706 34.88-26.683 77.479-13.625 116.868 23.226 70.556 81.988 121.771 139.716 121.771 4.065 0 8.155-0.246 12.056-0.78 3.343-0.468 6.57-1.117 9.781-1.914l6.521-1.634-1.634 6.513c-12.697 50.656-32.063 90.554-55.986 115.381l-2.119 2.185-9.042-4.763c-4.008-2.037-7.383-3.564-10.718-5.051-5.445-2.415-8.985-3.852-12.492-5.174-5.158-1.938-8.591-3.088-12.065-4.23-5.724-1.881-9.092-2.842-12.451-3.77l-3.154-0.903c-3.080-0.805-13.37-3.113-13.37-3.113-3.129-0.641-13.666-2.488-13.666-2.488-3.137-0.476-14.003-1.749-14.003-1.749-2.792-0.296-14.413-1.117-14.413-1.117-4.813-0.222-9.773-0.329-14.693-0.329-4.813 0-9.568 0.107-14.216 0.329l-9.781 0.682c-1.684 0.123-8.098 0.788-8.098 0.788-4.739 0.575-7.86 0.944-10.865 1.396 0 0-10.734 1.881-13.756 2.488l-3.753 0.887c-4.032 0.887-6.866 1.528-9.65 2.283-6.496 1.774-9.806 2.677-13.058 3.737 0 0-9.412 3.137-12.648 4.336-5.691 2.226-9.018 3.548-12.295 4.961-5.117 2.308-8.549 3.876-11.917 5.585l-10.020 5.182-2.102-2.185c-26.289-26.995-47.601-68.347-60.019-116.432l-1.79-6.907 6.808 2.070c4.443 1.322 8.96 2.308 13.551 2.965 4.139 0.542 8.32 0.821 12.492 0.821zM603.654 456.361c-3.531-2.456-7.137-4.837-10.816-7.129l-3.991-2.488 3.088-3.548c31.052-35.799 47.733-88.263 56.274-125.984l0.427-1.856 1.7-0.862c31.964-15.933 59.263-47.954 74.892-87.852l3.195-8.147 4.098 7.72c1.101 2.078 2.012 4.098 2.595 5.683 10.126 28.786-7.137 82.39-27.488 120.021-31.98 59.173-80.296 92.845-99.58 104.573l-2.242 1.38-2.152-1.511zM283.923 456.492c-19.3-11.728-67.632-45.425-99.621-104.573-20.984-38.781-37.171-92.451-27.48-120.021l3.482-9.888 4.246 9.092c15.777 37.935 42.485 68.47 73.266 83.811l1.7 0.846 0.419 1.856c11.58 50.426 32.867 95.013 59.97 125.573l3.162 3.581-4.049 2.513c-3.655 2.291-7.244 4.64-10.677 7.071l-2.16 1.511-2.259-1.372zM390.27 427.805c4.303-0.903 7.391-1.445 10.447-1.938l3.991-0.706c2.874-0.435 13.305-1.667 13.305-1.667 2.989-0.329 5.839-0.517 8.714-0.682l5.108-0.386c4.747-0.23 9.486-0.329 14.208-0.329 4.731 0 9.461 0.099 14.052 0.296l4.147 0.329c4.041 0.246 6.792 0.435 9.551 0.764l13.477 1.667c0 0 10.069 1.774 13.116 2.406 0 0 9.962 2.242 12.861 3.006l2.669 0.764c3.433 0.928 6.644 1.831 9.765 2.842l12.426 4.287 2.324 0.986c2.398 0.846 5.757 2.209 9.034 3.63 4.657 2.078 8.057 3.63 11.317 5.24 4.287 2.209 7.663 3.959 10.989 5.815 3.753 2.144 7.071 4.147 10.365 6.209 17.074 10.824 32.293 23.464 45.54 37.787 40.193 43.503 59.157 99.457 52.011 153.505-0.329 2.472 0.944 4.887 3.137 6.020 5.683 2.981 10.159 5.765 14.118 8.796 45.852 34.888 56.348 102.865 23.398 151.567-16.081 23.776-39.947 39.306-67.189 43.758-5.215 0.862-10.447 1.281-15.637 1.281-21.287 0-41.754-7.005-59.181-20.244-4.993-3.86-9.683-8.303-14.389-13.567-1.125-1.257-2.751-1.979-4.451-1.979-0.986 0-1.963 0.263-2.817 0.723-34.518 18.766-72.806 28.819-110.7 29.049-37.836-0.23-76.091-10.282-110.683-29.073-0.846-0.468-1.831-0.723-2.801-0.723-1.7 0-3.326 0.739-4.468 2.020-4.731 5.322-9.436 9.773-14.389 13.543-17.395 13.214-37.836 20.203-59.165 20.203-5.19 0-10.438-0.411-15.645-1.257-27.176-4.451-51.034-20.006-67.156-43.799-32.974-48.677-22.503-116.662 23.341-151.558 3.959-2.973 8.459-5.79 14.142-8.804 2.201-1.158 3.441-3.564 3.113-6.004-7.145-54.122 11.818-110.059 52.044-153.521 2.612-2.825 5.273-5.568 8.024-8.27 8.796-8.533 17.813-15.998 27.192-22.602 3.31-2.39 6.57-4.533 9.822-6.611 3.54-2.275 6.849-4.205 10.143-6.086 3.991-2.267 7.285-3.983 10.603-5.642 4.271-2.144 7.539-3.663 10.824-5.117 3.293-1.445 5.831-2.513 8.18-3.441l8.944-3.375c0.928-0.312 1.873-0.641 2.825-0.969l9.346-3.006c0.887-0.271 1.79-0.534 2.694-0.78l9.822-2.636c1.38-0.329 7.539-1.716 7.539-1.716zM601.503 74.024c-4.147 0-8.344 0.246-12.566 0.846-26.831 3.688-49.285 18.043-63.222 40.431-14.126 22.7-17.37 50.426-8.87 76.083 14.767 44.94 53.974 78.818 91.211 78.818 2.546 0 5.059-0.164 7.556-0.493 39.84-5.716 71.706-49.605 74.046-102.044 1.191-24.679-7.819-48.973-24.729-66.655-16.59-17.403-39.117-26.987-63.427-26.987zM607.662 258.376c-32.621 0-66.080-29.73-79.582-70.704-7.367-22.33-4.542-46.41 7.704-66.088 12.056-19.357 31.504-31.775 54.73-34.97 3.605-0.493 7.194-0.706 10.734-0.706 21.214 0 40.793 8.27 55.14 23.316 14.652 15.366 22.47 36.456 21.452 57.859-2.127 46.911-29.582 85.979-63.871 90.907-2.029 0.255-4.172 0.386-6.307 0.386zM290.296 74.024c-24.178 0-46.648 9.584-63.296 26.971-16.885 17.731-25.895 42.041-24.712 66.679 2.382 52.455 34.19 96.327 73.997 102.044 2.71 0.37 5.371 0.517 8.057 0.517 37.598 0 75.771-33.171 90.776-78.884 8.525-25.632 5.273-53.358-8.87-76.083-13.962-22.388-36.399-36.719-63.189-40.382-4.262-0.591-8.558-0.862-12.763-0.862zM284.334 258.408c-2.193 0-4.32-0.164-6.447-0.411-34.247-4.895-61.645-43.955-63.772-90.858-1.010-21.427 6.833-42.559 21.501-57.957 14.389-15.029 33.787-23.316 54.664-23.316 3.688 0 7.433 0.246 11.21 0.788 23.209 3.154 42.649 15.563 54.705 34.921 12.27 19.735 15.087 43.815 7.695 66.080-13.469 40.99-46.936 70.753-79.557 70.753zM446.060 472.384c-55.617 0.271-104.778 37.729-114.33 87.137-4.262 21.756 1.996 44.226 17.616 63.255 21.452 26.043 57.58 41.589 96.64 41.589 39.093 0 75.204-15.547 96.623-41.589 15.686-19.029 21.936-41.499 17.625-63.279-9.56-49.383-58.631-86.817-114.174-87.113zM445.986 652.506c-35.586 0-68.281-13.912-87.466-37.237-13.346-16.294-18.725-35.298-15.144-53.482 8.492-43.922 52.636-77.282 102.651-77.561 49.983 0.271 94.053 33.607 102.561 77.537 3.605 18.265-1.774 37.261-15.144 53.482-19.185 23.341-51.888 37.261-87.458 37.261zM445.969 506.163c-25.558 0-48.357 10.036-62.606 27.562-2.39 2.759-4.303 5.544-5.741 8.328l-1.766 3.318c-0.715 1.421-0.829 3.047-0.345 4.517 0.501 1.503 1.552 2.718 2.957 3.425 0.879 0.452 1.766 0.665 2.686 0.665 2.209 0 4.287-1.281 5.264-3.252 1.684-3.326 3.704-6.496 6.069-9.387 8.927-9.954 24.466-18.429 41.589-21.797l3.589-0.944v43.651l-1.782 2.291c-12.188 3.252-28.359 9.666-33.171 27.652-3.326 7.318-2.759 13.995 0.821 19.957 6.217 10.233 21.246 16.187 40.965 16.327 20.655-0.517 36.374-6.283 42.871-15.777 3.934-5.733 4.673-12.533 2.029-19.16-6.168-13.28-21.78-26.347-41.45-30.601l-10.282-0.682v-43.651l11.662 0.107c22.051 2.842 43.963 14.799 52.644 32.005 1.002 2.004 4.821 3.252 7.071 3.252 0.944 0 2.735-0.222 3.597-0.641 1.396-0.706 2.883-1.938 3.375-3.441 0.501-1.503 0.591-3.113-0.115-4.533-12.196-24.178-38.838-39.191-69.932-39.191zM444.762 590.532c-14.857 0-26.938 8.738-30.79 2.415-1.035-1.79-2.078-22.421 0.14-26.642 4.082-16.45 21.025-41.483 32.252-41.483h1.043l2.119 24.523c15.867 2.324 22.873 23.324 29.040 36.604 1.101 2.809 0.756-1.552-0.92 0.854-4.369 6.431-16.968 3.72-32.046 3.72h-0.838zM517.609 676.545c-13.83 0-24.655 14.783-24.655 33.623 0 18.865 10.824 33.664 24.655 33.664 13.797 0 24.605-14.799 24.605-33.664 0-18.84-10.808-33.623-24.605-33.623zM517.609 731.964c-6.792 0-12.771-10.167-12.771-21.797 0-11.605 5.979-21.764 12.771-21.764 6.767 0 12.713 10.159 12.713 21.764 0 11.629-5.938 21.797-12.713 21.797zM374.362 676.545c-13.806 0-24.614 14.783-24.614 33.623 0 18.865 10.808 33.664 24.614 33.664s24.605-14.799 24.605-33.664c0-18.84-10.8-33.623-24.605-33.623zM374.362 731.964c-6.8 0-12.754-10.167-12.754-21.797 0-11.605 5.954-21.764 12.754-21.764 6.784 0 12.738 10.159 12.738 21.764 0 11.629-5.954 21.797-12.738 21.797zM665.817 702.004c-0.641 0-1.314 0.107-1.963 0.329-1.56 0.534-2.858 1.758-3.482 3.318-14.036 33.894-36.21 64.446-64.166 88.328-1.224 1.035-1.955 2.513-2.045 4.106-0.115 1.626 0.419 3.154 1.503 4.353 2.579 2.866 5.379 5.56 8.508 7.917 10.397 7.942 22.618 12.106 35.397 12.106 3.104 0 6.242-0.246 9.371-0.739 16.179-2.661 30.363-11.892 39.922-25.977 19.308-28.531 13.108-68.388-13.855-88.837-2.029-1.585-4.123-2.883-6.266-4.147-0.871-0.485-1.889-0.756-2.924-0.756zM639.593 810.643c-9.625 0-18.971-3.047-27.053-8.804l-3.991-2.866 3.589-3.343c22.257-20.844 40.957-46.394 54.065-73.972l2.423-5.108 4.032 3.959c18.068 17.83 20.803 47.314 6.357 68.618-7.687 11.342-19.045 18.766-32.005 20.893-2.464 0.419-4.952 0.624-7.416 0.624zM226.114 702.004c-1.018 0-2.070 0.271-2.932 0.788-2.185 1.24-4.238 2.562-6.266 4.098-26.921 20.499-33.13 60.356-13.83 88.887 9.51 14.060 23.71 23.259 39.955 25.944 3.104 0.493 6.233 0.739 9.338 0.739 12.746 0 24.991-4.164 35.372-12.081 3.162-2.349 5.93-5.075 8.525-7.942 1.068-1.199 1.601-2.759 1.503-4.369-0.107-1.56-0.854-3.055-2.061-4.065-27.964-23.965-50.122-54.5-64.133-88.345-0.657-1.585-1.946-2.801-3.605-3.375l-1.864-0.279zM252.329 810.626c-2.439 0-4.911-0.189-7.359-0.6-13.017-2.127-24.392-9.551-32.079-20.91-14.43-21.353-11.695-50.821 6.365-68.601l4.016-3.959 2.423 5.108c13.091 27.488 31.783 53.071 54.081 73.972l3.589 3.375-4.008 2.842c-8.065 5.741-17.419 8.771-27.028 8.771z" />
<glyph unicode="&#xe917;" glyph-name="entretenimiento" horiz-adv-x="941" d="M256.476 76.537c-15.432 0-27.964 10.118-27.964 25.558 0 15.703 12.533 26.043 27.964 26.043h9.231l-75.787 447.218h-19.39c-16.434 0-29.812 16.384-29.812 32.826 0 16.491 12.73 31.258 28.942 31.759l6.882 0.944-3.195 6.48c-3.959 7.515-5.946 15.662-5.946 23.891 0 28.219 22.946 51.264 51.149 51.264 4.665 0 9.469-0.657 14.249-2.070l6.948-2.004-1.536 7.079c-0.871 4.090-1.298 7.506-1.298 10.751 0 28.219 22.946 51.166 51.166 51.166 5.675 0 11.547-1.109 17.411-3.228l6.020-2.193-0.246 6.406-0.115 1.741c0 28.219 22.955 51.19 51.166 51.19 10.406 0 20.376-3.088 28.827-8.927l2.439-1.651 2.423 1.651c8.574 5.839 18.528 8.927 28.786 8.927 15.407 0 29.845-6.907 39.643-18.898l3.318-4.074 3.343 4.074c9.773 11.991 24.244 18.898 39.627 18.898 10.274 0 20.236-3.088 28.835-8.952l2.423-1.659 2.423 1.659c8.574 5.864 18.553 8.952 28.81 8.952 28.194 0 51.166-22.971 51.166-51.19l-0.164-6.316 5.806 0.361c5.856 2.135 11.72 3.219 17.395 3.219 28.235 0 51.182-22.946 51.182-51.166 0-4.903-0.739-9.855-2.193-14.676l-2.957-9.839 9.092 4.796c7.49 3.95 15.711 6.045 23.792 6.045 28.211 0 51.157-22.955 51.157-51.157 0-8.336-2.086-16.467-6.176-24.113l-2.866-5.289 5.962-0.986c14.512-2.324 25.065-17.69 25.065-32.391 0-16.713-13.395-33.303-29.829-33.303h-19.39l-75.787-447.218h9.231c15.432 0 27.989-10.102 27.989-25.558 0-15.703-12.557-26.043-27.989-26.043h-427.22zM256.476 110.94c-8.106 0-14.701-4.451-14.701-12.557 0-8.517 7.736-10.956 15.974-10.956l425.717 2.185c8.131 0 15.005-0.378 15.005 7.736 0 8.517-6.48 13.592-14.725 13.592h-427.269zM612.179 128.138h46.952l75.812 447.218h-70.983l-51.781-447.218zM568.849 418.114l0.788 0.296c10.792-16.376 16.475-34.239 16.475-53.087 0-23.037-8.213-44.718-23.784-63.255l-0.92-0.895-10.742-173.035h46.271l51.781 447.218h-69.932l-9.937-157.242zM404.725 128.138h130.772l9.765 157.488-7.194-4.747c-19.973-13.165-43.478-20.154-67.952-20.154s-47.979 6.964-67.944 20.154l-7.211 4.747 9.765-157.488zM343.31 128.138h46.246l-10.742 173.224-0.92 1.084c-15.563 18.528-23.784 40.546-23.784 63.657 0 18.848 5.716 37.467 16.499 53.826l0.764-1.79-9.937 157.217h-69.923l51.798-447.218zM281.090 128.138h46.961l-51.79 447.218h-70.958l75.787-447.218zM470.115 458.192c-32.662 0-62.68-13.592-82.349-37.27-13.329-16.048-20.392-35.011-20.392-54.82 0-23.267 9.814-45.515 27.62-62.655 19.44-18.742 46.821-29.484 75.114-29.484s55.683 10.742 75.114 29.484c17.822 17.148 27.62 39.405 27.62 62.655 0 19.809-7.030 38.772-20.368 54.82-19.661 23.669-49.671 37.27-82.358 37.27zM470.115 471.456c28.843 0 56.602-9.847 78.103-27.71l6.529-8.41 8.886 140.019h-187.005l8.862-140.019 6.529 6.899c21.509 17.863 49.244 29.221 78.095 29.221zM769.692 592.553c6.973 0 12.861 9.979 12.861 16.959 0 7.359-5.782 17.444-12.861 17.444h-599.154c-6.948 0-12.853-9.987-12.853-16.968 0-7.35 5.782-17.444 12.853-17.444h599.154zM663.862 706.193c-7.506 0-14.75-2.464-20.893-7.153-6.151-4.64-10.627-11.284-12.598-18.7-0.871-3.252-1.289-6.102-1.289-8.903 0-7.539 2.423-14.725 6.989-20.811 2.546-3.367 5.642-4.887 9.207-7.137l1.059 0.673h97.576l1.043-0.673c10.135 6.447 16.171 16.705 16.171 28.613 0 19.177-15.604 34.444-34.773 34.444-9.65 0-18.618-4.074-25.279-11.145l-5.971-6.406-5.971 6.316c-0.641 0.649-1.298 1.174-1.955 1.716-7.219 6.233-15.021 9.165-23.316 9.165zM515.425 706.193c-7.515 0-14.75-2.464-20.91-7.137-6.135-4.648-10.586-11.293-12.566-18.717-0.871-3.252-1.298-6.102-1.298-8.903 0-7.515 2.415-14.725 6.973-20.787 2.546-3.392 5.634-4.911 9.207-7.162l1.059 0.673h97.559l1.059-0.682c2.3 1.437 4.476 2.595 6.505 4.714 6.242 6.546 9.683 14.725 9.683 23.587 0 0.805-0.090 1.413-0.189 2.176-1.462 15.276-11.752 27.39-25.747 31.085-3.154 0.846-6.053 1.224-8.837 1.224-9.65 0-18.635-3.934-25.279-10.989l-5.971-6.348-5.946 6.34c-0.624 0.649-1.273 1.174-1.955 1.708-7.235 6.266-15.046 9.215-23.349 9.215zM366.995 706.193c-7.523 0-14.758-2.464-20.918-7.153-11.424-8.147-13.839-24.704-13.839-27.611 0-7.539 2.406-14.725 6.956-20.811 2.546-3.367 5.642-4.887 9.223-7.137l1.043 0.673h97.568l1.035-0.682c2.308 1.462 4.427 2.546 6.505 4.714 6.242 6.546 9.683 14.725 9.683 23.587 0 0.846-0.090 1.462-0.197 2.25-1.429 15.21-11.744 27.34-25.763 31.036-3.228 0.838-6.028 1.199-8.812 1.199-9.65 0-18.635-3.934-25.279-10.989l-5.962-6.348-5.962 6.348c-0.641 0.673-1.355 1.24-2.070 1.815-7.096 6.16-14.906 9.108-23.209 9.108zM218.55 706.193c-19.177 0-34.765-15.604-34.765-34.756 0-11.917 6.045-21.534 16.171-27.948l1.043 0.673h97.592l1.035-0.682c2.308 1.462 4.427 2.546 6.505 4.714 6.242 6.546 9.683 14.725 9.683 23.587 0 0.805-0.074 1.413-0.189 2.176-1.429 15.251-11.744 27.365-25.763 31.085-3.318 0.862-6.11 1.224-8.796 1.224-9.658 0-18.635-3.934-25.312-10.98l-5.946-6.365-5.971 6.348c-6.652 7.055-15.629 10.923-25.287 10.923zM429.486 722.594c3.088 0 6.053-0.32 8.977-0.838 12.040-2.144 22.922-8.533 30.675-18.019l3.318-4.098 3.334 4.098c6.119 7.465 14.167 13.067 23.332 16.138 5.322 1.823 10.816 2.718 16.302 2.718 3.334 0 6.833-0.435 11.046-1.38l3.614-0.788 1.33 3.441c0.657 1.708 1.174 3.499 1.552 5.297 0.558 2.587 0.813 4.903 0.813 7.104 0 19.177-15.588 34.781-34.756 34.781-2.447 0-4.903-0.296-7.539-0.862-6.808-1.511-12.96-5.018-17.748-10.11l-5.987-6.348-5.946 6.324c-4.829 5.133-10.972 8.623-17.748 10.135-2.628 0.567-5.1 0.862-7.539 0.862-19.177 0-34.756-15.604-34.756-34.781 0-2.201 0.255-4.509 0.805-7.104 0.616-2.842 1.552-5.618 2.85-8.188l1.741-3.556 3.688 1.462c6.201 2.456 12.483 3.712 18.643 3.712zM281.074 722.594c15.383 0 29.837-6.866 39.627-18.857l3.334-4.098 3.334 4.098c6.102 7.465 14.183 13.067 23.324 16.138 5.322 1.823 10.816 2.718 16.319 2.718 3.31 0 6.817-0.435 11.063-1.38l3.63-0.788 1.306 3.474c0.649 1.675 1.166 3.466 1.569 5.264 0.542 2.661 0.788 4.903 0.788 7.104 0 19.177-15.588 34.781-34.756 34.781-2.423 0-4.887-0.296-7.515-0.862-6.808-1.511-12.935-4.993-17.772-10.11l-5.946-6.348-5.987 6.348c-6.669 7.055-15.645 10.964-25.279 10.964-19.177 0-34.773-15.604-34.773-34.781 0-5.24 1.224-10.414 3.646-15.292l1.741-3.556 3.688 1.462c6.242 2.464 12.533 3.72 18.659 3.72zM577.924 722.594c3.063 0 6.053-0.32 8.968-0.838 12.040-2.119 22.938-8.533 30.658-18.019l3.343-4.098 3.343 4.098c9.773 11.991 24.219 18.857 39.627 18.857 3.334 0 6.841-0.435 11.046-1.38l3.63-0.788 1.33 3.449c1.544 4.065 2.365 8.237 2.365 12.393 0 19.177-15.604 34.781-34.789 34.781-9.634 0-18.61-3.909-25.254-10.964l-5.987-6.348-5.962 6.324c-4.829 5.133-10.98 8.623-17.764 10.135-2.603 0.871-5.782 1.339-9.067 1.339-9.231 0-18.019-3.876-24.104-10.693-4.829-5.42-10.208-15.243-8.385-31.258 0.682-3.277 1.626-6.012 2.883-8.549l1.758-3.531 3.646 1.454c6.233 2.423 12.508 3.638 18.717 3.638zM499.032 787.433c15.399 0 29.845-6.858 39.627-18.873l3.318-4.074 3.343 4.074c9.773 12.015 24.228 18.873 39.627 18.873 5.691 0 11.473-1.027 17.173-3.063l5.322-1.889 0.567 7.704c0 19.152-15.596 34.756-34.773 34.756-9.634 0-18.61-3.901-25.279-10.956l-5.979-6.324-5.962 6.324c-6.644 7.055-15.621 10.956-25.279 10.956-19.177 0-34.756-15.604-34.756-34.756l0.312-5.724 5.56-0.090c5.708 2.045 11.481 3.063 17.181 3.063zM350.586 787.433c15.407 0 29.837-6.858 39.627-18.873l3.343-4.074 3.318 4.074c9.798 12.015 24.244 18.873 39.635 18.873 5.609 0 11.366-1.059 17.148-3.137l5.363-1.93 0.542 7.827c0 19.152-15.588 34.756-34.773 34.756-9.634 0-18.627-3.901-25.279-10.964l-5.946-6.316-5.995 6.324c-6.644 7.055-15.621 10.956-25.279 10.956-9.272 0-17.994-3.614-24.573-10.192-6.57-6.587-10.192-15.3-10.192-24.573l0.386-5.675 5.511-0.214c5.79 2.078 11.564 3.137 17.165 3.137z" />
<glyph unicode="&#xe918;" glyph-name="almacenes" horiz-adv-x="941" d="M720.079 629.075h-126.263v77.397c0 36.867-19.883 107.48-95.646 110.823h-27.455c-1.47 0-2.883-0.304-4.156-0.846-10.504-1.232-19.957-3.679-28.219-7.342-10.447 4.607-22.569 7.564-36.637 8.196h-27.455c-1.47 0-2.883-0.304-4.156-0.846-68.412-7.999-86.965-74.506-86.965-109.969v-77.397h-134.698l-51.576-550.386h693.239l-70.014 550.37zM475.568 796.040l22.125 0.016c73.701-3.26 74.843-86.078 74.868-89.585v-77.397h-75.221v77.397c0 24.228-8.722 62.951-36.136 87.663 4.484 0.961 9.207 1.667 14.364 1.905zM438.471 784.896c36.736-23.415 37.606-75.648 37.623-78.415v-77.397h-75.237v77.381c0.008 2.776 0.871 55.017 37.614 78.432zM304.373 706.456c0.016 3.531 1.174 86.226 74.728 89.585l22.125 0.016c5.182-0.222 9.913-0.936 14.397-1.897-27.299-24.696-36.029-63.452-36.029-87.688v-77.397h-75.221v77.381zM120.177 99.96l47.593 507.861h115.34v-61.785c0-5.88 4.747-10.627 10.627-10.627s10.627 4.747 10.627 10.627v61.785h171.712v-61.785c0-5.88 4.747-10.627 10.627-10.627s10.627 4.747 10.627 10.627v61.785h123.775l-23.792-253.93-23.801-253.93h-453.336zM618.651 353.89l23.801 253.93h58.91l64.618-507.861h-171.121l23.792 253.93z" />
<glyph unicode="&#xe919;" glyph-name="deportes" horiz-adv-x="941" d="M470.411 150.969c-163.787 0-297.031 133.236-297.031 297.023 0 163.795 133.236 297.039 297.031 297.039s297.031-133.252 297.031-297.039c0-163.779-133.236-297.023-297.031-297.023zM470.411 725.542c-153.045 0-277.542-124.505-277.542-277.55 0-153.037 124.497-277.55 277.542-277.55s277.542 124.514 277.542 277.55c0 153.045-124.497 277.55-277.542 277.55zM731.683 333.292c-171.959 117.631-261.864 100.155-262.751 99.941l-7.802-1.675-3.236 7.326c-3.318 7.63-80.575 188.294-40.711 296.349l18.273-6.743c-33.065-89.642 23.932-241.324 37.516-275.078 26.856 2.308 117.5 0.099 269.707-104.031l-10.997-16.089zM257.881 247.871l-4.837 18.873 2.431-9.428-2.447 9.428c1.092 0.287 109.197 29.853 202.781 177.141l16.442-10.447c-98.044-154.31-209.672-184.368-214.37-185.567zM742.951 429.644c-131.93 122.239-304.587 96.631-306.295 96.369l-3.047 19.259c7.449 1.183 183.81 27.275 322.581-101.345l-13.239-14.282zM736.217 532.698c-126.378 108.425-317.218 96.557-319.107 96.401l-1.355 19.44c8.139 0.558 200.761 12.5 333.151-101.058l-12.689-14.783zM325.135 191.433l-2.965 19.267c1.626 0.246 163.171 27.628 230.212 223.305l18.438-6.307c-71.008-207.265-243.935-236.002-245.685-236.265zM450.018 152.365l-5.889 18.569c1.314 0.427 131.996 44.053 210.715 219.675l17.772-7.975c-82.473-184.048-216.907-228.463-222.599-230.269zM386.772 342.696c-1.298 1.404-130.041 142.229-74.909 353.338l18.865-4.928c-52.348-200.408 69.061-333.783 70.293-335.105l-14.249-13.305zM311.001 281.56c-4.87 6.086-118.921 150.696-95.621 311.798l19.292-2.792c-22.084-152.618 90.406-295.405 91.539-296.826l-15.21-12.18z" />
<glyph unicode="&#xe91a;" glyph-name="flech-siguiente" horiz-adv-x="941" d="M601.289 742.608v-128.234h-42.756c-342.037 0-427.556-175.301-427.556-427.556 42.756 171.014 171.039 213.778 342.037 213.778h128.275v-128.283l213.754 227.157-213.754 243.139z" />
<glyph unicode="&#xe91b;" glyph-name="emailar" horiz-adv-x="941" d="M483.65 805.961c169.257 0 277.542-115.923 277.542-279.086 0-141.867-97.592-211.996-181.51-211.996-44.973 0-82.341 21.337-91.474 57.974h-1.503c-19.85-30.527-61.029-50.377-91.531-50.377-62.532 0-103.67 47.33-103.67 117.467 0 97.592 70.129 190.61 157.061 190.61 24.392 0 44.185-10.652 56.438-38.099h1.503l12.196 32.005h79.319l-36.637-173.856c-9.141-38.099 1.552-56.438 32.054-56.438 45.778 0 86.924 51.847 86.924 129.671 0 103.678-53.391 204.35-207.397 204.35-128.119 0-256.23-109.829-256.23-279.144 0-150.967 106.766-218.057 221.153-218.057 36.588 0 82.325 12.204 112.81 27.447l27.505-70.129c-47.297-24.392-96.089-35.085-150.967-35.085-154.063 0-297.392 91.515-297.392 292.793-0.016 216.587 160.1 359.949 353.806 359.949zM424.173 403.364c13.699 0 25.887 7.597 42.682 30.445l16.795 96.114c-5.371 10.652-16.795 18.306-30.543 18.306-39.643 0-64.035-59.543-64.035-100.672 0-28.219 12.204-44.193 35.101-44.193z" />
<glyph unicode="&#xe91c;" glyph-name="documento" horiz-adv-x="941" d="M424.501 540.541h-316.044v-45.080h316.060v45.080h-0.016zM108.458 327.527h316.060v45.080h-316.060v-45.080zM108.458 624.771v-45.063h316.060v45.063h-316.060zM465.499 588.701v-224.364c6.16 2.842 13.132 5.396 21.099 7.474 67.772 18.561 101.485 26.519 108.729 48.422h3.597c-0.78 1.027-1.807 1.544-2.858 2.579-28.301 25.772-50.467 76.009-50.467 116.95 0 57.424 47.396 95.317 91.728 95.317 44.554 0 89.379-40.99 89.379-98.422 0-40.694-24.228-89.379-54.073-114.65 6.168-23.423 39.668-31.151 109.18-50.221 15.481-4.131 27.34-9.781 36.325-16.228v233.144c0 33.993-27.825 61.817-62.097 61.817h-228.504c-34.231 0.016-62.039-27.825-62.039-61.817zM108.458 456.558v-45.080h316.060v45.080h-316.060zM860.895 272.395c0-31.167-25.246-56.438-56.422-56.438h-694.217c-31.151 0-56.422 25.271-56.422 56.438v386.903c0 31.151 25.271 56.66 56.422 56.66h694.208c31.184 0 56.422-25.509 56.422-56.66v-386.903zM598.899 420.233h-3.597c0.517 1.027 0.517 1.544 0.747 2.579 1.068-1.027 2.094-1.552 2.85-2.579z" />
<glyph unicode="&#xe91d;" glyph-name="calendar" horiz-adv-x="941" d="M194.068 584.857v-392.554c0-29.295 23.472-53.038 52.422-53.038h471.799c28.95 0 52.422 23.743 52.422 53.038v392.554h-576.643zM338.226 178.589h-104.844v104.844h104.844v-104.844zM338.226 309.64h-104.844v104.844h104.844v-104.844zM338.226 440.699h-104.844v104.844h104.844v-104.844zM469.285 178.589h-104.844v104.844h104.844v-104.844zM469.285 309.64h-104.844v104.844h104.844v-104.844zM469.285 440.699h-104.844v104.844h104.844v-104.844zM600.345 178.589h-104.852v104.844h104.844v-104.844zM600.345 309.64h-104.852v104.844h104.844v-104.844zM600.345 440.699h-104.852v104.844h104.844v-104.844zM731.396 178.589h-104.844v104.844h104.844v-104.844zM731.396 309.64h-104.844v104.844h104.844v-104.844zM731.396 440.699h-104.844v104.844h104.844v-104.844zM718.288 715.917h-85.183v58.976c0 10.857-8.804 19.661-19.661 19.661s-19.661-8.804-19.661-19.661v-58.976h-222.788v58.976c0 10.857-8.804 19.661-19.661 19.661s-19.661-8.804-19.661-19.661v-58.976h-85.183c-28.95 0-52.422-23.743-52.422-53.030v-51.814h576.643v51.814c0 29.287-23.472 53.030-52.422 53.030zM351.334 624.172c-21.706 0-39.314 17.608-39.314 39.314 0 14.537 7.925 27.209 19.661 34.009v-34.009c0-10.857 8.804-19.661 19.661-19.661 10.849 0 19.661 8.804 19.661 19.661v34.017c11.744-6.8 19.661-19.472 19.661-34.017-0.016-21.706-17.616-39.314-39.331-39.314zM613.444 624.172c-21.706 0-39.314 17.608-39.314 39.314 0 14.537 7.925 27.209 19.661 34.009v-34.009c0-10.857 8.804-19.661 19.661-19.661 10.849 0 19.661 8.804 19.661 19.661v34.017c11.744-6.8 19.661-19.472 19.661-34.017-0.008-21.706-17.616-39.314-39.331-39.314z" />
<glyph unicode="&#xe91e;" glyph-name="users2" horiz-adv-x="941" d="M710.839 282.135c-93.716 21.641-180.968 40.555-138.681 120.202 128.579 242.465 34.083 372.137-101.731 372.137-138.5 0-230.655-134.648-101.723-372.137 43.503-80.107-47.010-99.038-138.705-120.202-75.787-17.452-85.552-53.128-86.513-113.574-0.394-25.969 21.090-47.026 47.059-47.026h559.733c25.977 0 47.486 21.058 47.059 47.026-0.944 60.438-10.709 96.122-86.497 113.574z" />
<glyph unicode="&#xe91f;" glyph-name="lapiz" horiz-adv-x="941" d="M814.18 754.081c-10.315 23.045-32.416 41.261-65.398 54.697-6.004 14.873-16.475 28.104-30.97 37.491-37.59 24.269-87.4 13.411-111.587-24.039l-348.040-539.217c10.545-21.608 26.363-44.341 50.155-61.423 23.341-16.869 51.65-25.961 84.32-27.858l349.166 540.958c2.916 4.492 5.289 9.19 7.178 13.953 9.929-6.595 14.118-12.508 15.801-15.933 3.655-7.589 1.363-14.266 0.821-15.695l-186.701-285.936c-8.122-12.459-4.607-29.098 7.81-37.245 1.536-0.994 3.113-1.807 4.747-2.439 11.662-4.689 25.369-0.673 32.498 10.25l188.368 288.703c1.758 3.072 16.499 30.954 1.831 63.731zM292.407 199.909c-22.733 16.393-39.142 36.752-51.018 57.095l-3.031-4.698c-0.23-0.312-0.312-0.649-0.501-0.944-2.957-3.811-5.388-7.991-6.858-12.754l-64.158-211.553c-6.997-22.799 20.228-40.571 38.247-24.95l157.439 148.84c0.041 0.016 0.041 0.181 0.131 0.246 4.106 4.065 7.991 8.467 11.293 13.567l2.127 3.293c-16.828 2.078-32.646 6.004-47.322 11.876-12.984 5.199-25.106 11.843-36.35 19.982z" />
<glyph unicode="&#xe920;" glyph-name="genero" horiz-adv-x="941" d="M739.51 827.857c-1.265 3.137-3.203 5.962-5.511 8.361-0.123 0.057-0.222 0.107-0.353 0.181-2.267 2.25-4.928 4.090-7.95 5.322-1.544 0.649-3.236 0.706-4.903 1.059-1.634 0.304-3.228 0.928-4.878 0.928h-118.206c-14.192 0-25.632-11.457-25.632-25.607 0-14.118 11.44-25.673 25.632-25.599h56.331l-115.192-115.225c-82.497 64.519-202.026 59.009-277.961-16.91-41.13-41.138-61.637-95.087-61.555-148.988 0-0.057-0.008-0.131-0.008-0.197 0-107.382 80.6-195.833 184.574-208.481v-81.126h-81.914c-14.183 0-25.648-11.44-25.648-25.599 0-14.167 11.465-25.607 25.648-25.607h81.914v-92.509c0-14.093 11.481-25.575 25.624-25.575s25.648 11.465 25.648 25.575v92.517h81.906c14.167 0 25.624 11.44 25.624 25.607 0 14.142-11.457 25.599-25.624 25.599h-81.906v81.126c74.835 9.108 137.358 57.571 166.645 124.021 0.057 0.148 0.131 0.296 0.205 0.452 2.398 5.503 4.566 11.112 6.496 16.844 0.131 0.361 0.255 0.739 0.378 1.109 1.79 5.396 3.351 10.882 4.714 16.467 0.181 0.715 0.353 1.437 0.526 2.168 1.183 5.125 2.176 10.307 2.981 15.58 0.197 1.265 0.353 2.53 0.534 3.794 0.632 4.698 1.117 9.42 1.437 14.208 0.131 1.938 0.197 3.868 0.255 5.815 0.107 2.677 0.378 5.322 0.378 8.032 0 1.495-0.197 2.932-0.23 4.41-0.057 3.055-0.271 6.102-0.46 9.157-0.23 3.54-0.402 7.088-0.788 10.562-0.402 3.49-1.018 6.94-1.593 10.397-0.501 2.998-0.862 6.012-1.487 8.96-2.727 13.009-6.718 25.804-11.917 38.222-0.099 0.222-0.205 0.411-0.279 0.624-7.063 16.697-16.294 32.72-27.858 47.494l115.184 115.241v-56.364c-0.025-14.142 11.457-25.607 25.632-25.599 14.118-0.008 25.599 11.481 25.599 25.599v118.182c-0.041 3.31-0.698 6.677-2.012 9.773zM551.38 507.674c-0.082-3.31-0.197-6.619-0.501-9.88-3.080-31.586-16.713-62.343-40.908-86.521-55.494-55.469-145.464-55.518-200.925-0.025-24.219 24.211-37.853 54.993-40.924 86.612-0.222 2.291-0.255 4.624-0.353 6.948-0.107 2.176-0.304 4.361-0.304 6.546 0.099 78.35 63.649 141.875 142.032 141.875 78.432 0 142.007-63.575 142.056-141.958-0.008-1.199-0.131-2.39-0.172-3.597z" />
<glyph unicode="&#xe921;" glyph-name="llave" horiz-adv-x="941" d="M311.149 264.65c-19.596-14.594-47.749-10.488-62.351 9.108-14.594 19.587-10.488 47.749 9.108 62.343 19.596 14.602 47.749 10.488 62.343-9.1 14.586-19.596 10.479-47.749-9.1-62.351zM707.727 708.952l-301.926-224.997c-53.662 26.322-119.923 22.634-171.77-15.998-73.759-54.968-88.164-157.102-33.623-230.269 54.525-73.184 157.077-88.139 230.261-33.623 51.864 38.641 74.325 101.091 64.454 160.034l38.025 28.342-5.93 33.212 12.106 9.018 30.124-15.177 47.823 35.635-5.946 33.204 12.106 9.018 30.124-15.169 47.823 35.627-5.93 33.212 12.097 9.034 30.141-15.194 35.717 26.626-5.839 107.661-59.838 29.804z" />
<glyph unicode="&#xe922;" glyph-name="ciudad" horiz-adv-x="941" d="M460.662 661.032l-406.507-227.855 401.596-236.396 402.105 235.879-397.194 228.372zM622.232 548.394l8.287-14.241-15.276-8.804-8.287 14.241 15.276 8.804zM578.211 523.025l8.287-14.241-57.481-33.147-8.287 14.241 57.481 33.147zM491.994 473.305l8.287-14.241-57.227-33.138-8.287 14.241 57.227 33.138zM406.031 423.593l8.287-14.241-57.481-33.138-8.287 14.241 57.481 33.138zM319.805 373.881l8.287-14.241-57.227-33.138-8.287 14.241 57.227 33.138z" />
<glyph unicode="&#xe923;" glyph-name="estudios" horiz-adv-x="941" d="M729.761 317.048l53.654 28.047v123.848l-53.654-28.646zM482.459 311.693c-4.246 0-8.451 1.035-12.319 3.088l-262.521 140.216v-122.961l274.84-144.257 155.895 81.487v122.198l-143.584-76.683c-3.86-2.061-8.081-3.088-12.311-3.088zM693.313 463.481l-152.7 80.543c0.485 16.22-7.835 32.112-23.102 40.3-6.636 3.581-13.806 5.281-20.844 5.281-15.76 0-31.020-8.459-38.978-23.316-11.547-21.493-3.449-48.283 18.035-59.83 6.578-3.523 13.641-5.19 20.598-5.19 9.198 0 18.216 2.891 25.763 8.237l142.376-75.015v-253.783c0-10.816 8.763-19.587 19.587-19.587s19.579 8.771 19.579 19.587v265.519c0.016 7.219-3.942 13.847-10.315 17.255zM482.459 730.815l-392.348-183.44 392.348-209.565 153.841 82.177-114.371 59.97c-8.090-3.162-16.738-4.804-25.591-4.804-11.424 0-22.815 2.866-32.941 8.295-16.549 8.878-28.646 23.677-34.075 41.647-5.412 17.986-3.523 36.974 5.355 53.531 12.262 22.881 36.021 37.081 61.998 37.081 11.523 0 22.996-2.907 33.188-8.369 18.364-9.864 31.020-27.012 35.282-46.854l140.52-73.989c8.311-4.451 14.767-11.301 18.939-19.366l150.228 80.23-392.373 183.457z" />
<glyph unicode="&#xe924;" glyph-name="hijos" horiz-adv-x="941" d="M246.293 573.861c-127.84 0-187.062-127.306-200.515-194.626-3.638-18.142 8.163-35.824 26.297-39.413 18.076-3.737 35.824 8.114 39.462 26.248 0.164 0.788 9.042 42.764 34.182 80.699v-308.783c0-17.222 13.067-31.709 30.223-33.393 1.109-0.066 2.217-0.131 3.351-0.131 15.801 0 29.697 11.12 32.851 26.913l33.524 167.655c0.452 2.3 0 4.377 0 6.611h1.306c0-2.234-0.452-4.328 0-6.611l33.524-167.655c3.137-15.769 17.025-26.913 32.851-26.913 1.109 0 2.217 0.066 3.351 0.131 17.156 1.692 30.223 16.113 30.223 33.393v309.293c24.622-36.998 33.524-78.12 34.182-81.208 3.17-15.9 17.189-26.913 32.851-26.913 2.16 0 4.394 0.197 6.611 0.657 18.142 3.605 29.919 21.279 26.297 39.413-13.494 67.328-72.74 194.634-200.572 194.634zM682.185 573.861c-127.823 0-187.062-127.306-200.515-194.626-3.638-18.142 8.163-35.824 26.297-39.413 18.076-3.737 35.857 8.114 39.446 26.248 0.181 0.788 9.042 42.764 34.182 80.699v-308.783c0-17.222 13.067-31.709 30.223-33.393 1.109-0.066 2.234-0.131 3.351-0.131 15.801 0 29.697 11.12 32.835 26.913l33.541 167.655c0.452 2.3 0 4.377 0 6.611h1.306c0-2.234-0.452-4.328 0-6.611l33.524-167.655c3.137-15.769 17.041-26.913 32.851-26.913 1.109 0 2.234 0.066 3.334 0.131 17.156 1.692 30.223 16.113 30.223 33.393v309.293c24.622-36.998 33.541-78.12 34.182-81.208 3.17-15.9 17.189-26.913 32.851-26.913 2.16 0 4.377 0.197 6.611 0.657 18.142 3.605 29.919 21.279 26.297 39.413-13.477 67.328-72.699 194.634-200.539 194.634zM346.882 707.983c0-55.554-45.036-100.59-100.59-100.59s-100.59 45.036-100.59 100.59c0 55.554 45.036 100.59 100.59 100.59s100.59-45.036 100.59-100.59zM782.775 707.983c0-55.554-45.036-100.59-100.59-100.59s-100.59 45.036-100.59 100.59c0 55.554 45.036 100.59 100.59 100.59s100.59-45.036 100.59-100.59zM866.529 679.304c-2.283 111.193-82.932 112.515-83.754 112.515-5.388 0-10.43-2.62-13.584-7.014-3.17-4.328-4.041-9.962-2.332-15.062 34.666-103.982 72.264-112.047 82.965-112.047 0.238-0.066 0.485-0.066 0.657 0 9.256 0 16.754 7.465 16.754 16.77 0.016 1.684-0.205 3.326-0.706 4.837zM595.179 784.805c-3.137 4.377-8.188 7.014-13.6 7.014-0.854 0-83.819-1.372-83.819-117.36 0-9.305 7.498-16.77 16.77-16.77 10.701 0 48.299 8.049 82.965 112.047 1.708 5.108 0.854 10.742-2.316 15.070z" />
<glyph unicode="&#xe925;" glyph-name="sector" horiz-adv-x="941" d="M108.047 789.322v-253.659c0-10.003 8.114-18.117 18.117-18.117h253.659c10.003 0 18.117 8.114 18.117 18.117v253.659c0 10.003-8.114 18.117-18.117 18.117h-253.659c-10.011 0-18.117-8.114-18.117-18.117zM542.888 789.322v-253.659c0-10.003 8.114-18.117 18.117-18.117h253.659c10.003 0 18.117 8.114 18.117 18.117v253.659c0 10.003-8.114 18.117-18.117 18.117h-253.659c-10.003 0-18.117-8.114-18.117-18.117zM108.047 354.481v-253.659c0-10.003 8.114-18.117 18.117-18.117h253.659c10.003 0 18.117 8.114 18.117 18.117v253.659c0 10.003-8.114 18.117-18.117 18.117h-253.659c-10.011 0-18.117-8.114-18.117-18.117zM542.888 354.481v-253.659c0-10.003 8.114-18.117 18.117-18.117h253.659c10.003 0 18.117 8.114 18.117 18.117v253.659c0 10.003-8.114 18.117-18.117 18.117h-253.659c-10.003 0-18.117-8.114-18.117-18.117z" />
<glyph unicode="&#xe926;" glyph-name="calendar2" horiz-adv-x="941" d="M244.050 852.38h94.176v-94.176h-94.176v94.176zM620.762 852.38h94.176v-94.176h-94.176v94.176zM809.113 805.288h-47.092v-47.092c0-26.018-21.074-47.092-47.092-47.092h-94.168c-26.018 0-47.092 21.074-47.092 47.092v47.092h-188.351v-47.092c0-26.018-21.090-47.092-47.108-47.092h-94.176c-26.018 0-47.067 21.074-47.067 47.092v47.092h-47.108c-26.018 0-47.067-21.074-47.067-47.092v-612.155c0-26.018 21.058-47.092 47.067-47.092h659.263c26.018 0 47.092 21.074 47.092 47.092v612.163c-0.008 26.010-21.082 47.084-47.1 47.084zM432.402 240.225h-141.26v94.176h141.26v-94.176zM432.402 428.577h-141.26v94.184h141.26v-94.184zM667.845 240.225h-141.26v94.176h141.268v-94.176zM667.845 428.577h-141.26v94.184h141.268v-94.184z" />
<glyph unicode="&#xe927;" glyph-name="camara" horiz-adv-x="941" d="M169.208 697.947v29.139c0 13.173 10.677 23.842 23.825 23.842h78.481c13.173 0 23.842-10.677 23.842-23.842v-29.139h-126.148zM804.456 675.551h-29.467l-17.37 57.851c-8.32 27.685-39.947 49.375-71.96 49.375h-249.085c-32.104 0-63.46-21.78-71.369-49.572l-16.417-57.645h-202.691c-60.126 0-109.033-48.915-109.033-109.033v-354.956c0-60.126 48.915-109.033 109.033-109.033h658.36c60.101-0.008 109.016 48.915 109.016 109.033v354.956c0 60.109-48.915 109.024-109.016 109.024zM211.224 383.39c0-10.282-8.328-18.594-18.602-18.594h-60.561c-10.274 0-18.61 8.32-18.61 18.594v19.809c0 10.274 8.336 18.602 18.61 18.602h60.561c10.274 0 18.602-8.328 18.602-18.602v-19.809zM211.224 472.055c0-10.266-8.328-18.577-18.602-18.577h-60.561c-10.274 0-18.61 8.32-18.61 18.577v19.834c0 10.266 8.336 18.577 18.61 18.577h60.561c10.274 0 18.602-8.32 18.602-18.577v-19.834zM572.733 171.78c-128.875 0-233.333 104.458-233.333 233.333s104.466 233.316 233.333 233.316c128.85 0 233.316-104.45 233.316-233.316 0-128.883-104.466-233.333-233.316-233.333zM572.733 224.309c-99.695 0-180.804 81.109-180.804 180.796s81.109 180.796 180.804 180.796c99.687 0 180.788-81.109 180.788-180.796s-81.101-180.796-180.788-180.796zM572.733 543.629c-76.395 0-138.525-62.138-138.525-138.525s62.13-138.525 138.525-138.525 138.533 62.138 138.533 138.525-62.138 138.525-138.533 138.525z" />
<glyph unicode="&#xe928;" glyph-name="jpg" horiz-adv-x="941" d="M828.446 776.658h-713.311c-20.885 0-34.83-13.945-34.83-34.855v-627.094c0-20.885 13.945-34.83 34.83-34.83h713.303c20.91 0 34.855 13.945 34.855 34.83v627.094c0 20.91-13.945 34.855-34.847 34.855zM793.616 706.973v-477.293l-182.455 128.916-182.479-139.371-139.346 243.886-139.346-222.976v466.838h643.626zM480.948 602.457c28.86 0 52.25-23.39 52.25-52.25 0-28.884-23.39-52.266-52.25-52.266s-52.25 23.39-52.25 52.266c0 28.868 23.39 52.25 52.25 52.25z" />
<glyph unicode="&#xe929;" glyph-name="ojo" horiz-adv-x="1506" d="M1371.669 522.422c-95.116 93.142-334.118 295.702-613.926 295.702s-518.815-202.56-613.93-295.702c-25.769-25.234-25.769-66.482 0-91.735 95.116-93.142 334.118-295.702 613.926-295.702s518.815 202.556 613.926 295.716c25.778 25.225 25.778 66.487 0.005 91.721zM757.743 232.98c-134.528 0-243.578 109.050-243.578 243.578s109.050 243.578 243.578 243.578 243.578-109.050 243.578-243.578-109.050-243.578-243.578-243.578z" />
<glyph unicode="&#xe92a;" glyph-name="pesos" horiz-adv-x="941" d="M549.582 499.798c-30.675 17.526-64.651 30.675-96.41 43.823-18.643 7.687-37.245 17.526-52.603 29.599-31.767 25.197-25.197 65.727 12.056 82.169 9.872 4.377 20.819 6.57 32.867 6.57 42.747 2.193 83.261-5.478 122.699-24.121 19.735-9.847 25.213-6.554 31.792 13.165 6.57 20.819 13.149 42.723 18.627 64.634 4.369 14.241-1.092 24.104-14.241 29.582-25.213 10.956-50.394 18.627-76.691 23.012-35.060 5.478-35.060 5.478-35.060 40.538 0 49.301 0 49.301-50.41 49.301-7.671 0-14.241 0-21.912 0-23.012-1.092-27.39-4.377-27.39-28.482 0-10.956 0-20.819 0-31.775 0-30.675 0-30.675-29.582-41.63-72.305-26.289-116.128-75.59-121.606-153.373-4.386-69.053 31.767-116.161 88.739-150.121 35.060-20.819 74.498-33.96 111.743-50.394 14.241-6.57 28.498-14.241 40.538-24.104 36.169-29.582 29.591-78.884-13.149-97.502-23.004-9.864-47.092-12.048-71.213-9.864-38.345 4.386-74.498 14.241-108.458 32.867-19.719 10.956-26.297 7.663-32.867-14.241-5.478-18.627-10.956-37.245-16.434-56.972-6.57-25.213-4.386-31.767 19.719-43.823 30.675-15.333 64.634-23.020 98.602-28.482 26.297-4.394 27.39-5.494 27.39-32.884 0-12.048 0-25.197 0-37.228 0-15.35 7.671-25.213 24.104-25.213 18.627 0 37.245 0 54.779 0 15.341 0 23.029 8.763 23.029 24.104 0 17.526 1.076 33.96 0 51.51-1.109 17.526 6.57 26.297 22.988 30.675 38.362 10.956 71.229 30.675 96.426 61.349 67.911 87.638 41.614 212.53-58.072 267.309z" />
<glyph unicode="&#xe92b;" glyph-name="tienda" horiz-adv-x="941" d="M762.645 774.326c8.517 0.879 15.153 7.975 15.153 16.705 0 9.321-7.515 16.844-16.853 16.844h-605.322c-9.28 0-16.844-7.531-16.844-16.844 0-8.837 6.833-15.99 15.415-16.705l-89.848-302.435c1.864-24.449 29.049-61.67 65.308-61.67 6.242 0 9.519 1.002 18.134 2.948v-314.426c0-11.498 10.143-20.762 21.591-20.762h578.080c11.449 0 21.534 9.264 21.534 20.762v314.434c8.673-1.946 11.95-3.113 18.191-3.113 36.259 0 63.214 37.376 65.094 61.859l-89.634 302.402zM725.885 312.128v-125.187c0-12.073-10.373-21.871-22.429-21.871h-490.236c-12.073 0-22.273 9.822-22.273 21.871v250.736c8.582-15.218 28.227-27.652 49.203-27.652 23.883 0 42.986 16.081 54.27 34.075 11.251-17.994 30.716-34.075 54.574-34.075 23.825 0 43.462 16.081 54.697 34.075 11.235-17.994 30.888-34.075 54.771-34.075s43.61 16.081 54.845 34.075c11.268-17.994 30.962-34.075 54.837-34.075 23.866 0 43.577 16.081 54.878 34.075 11.235-17.994 29.763-34.075 53.629-34.075 21 0 40.571 12.442 49.227 27.652v-125.548h0.008z" />
<glyph unicode="&#xe92c;" glyph-name="fle-a" horiz-adv-x="748" d="M272.121 85.561l-117.203 129.548 274.78 248.614-275.615 255.922 118.872 128.024 415.276-385.616z" />
<glyph unicode="&#xe92d;" glyph-name="tecnologia" horiz-adv-x="941" d="M743.312 297v339.992c0 2.694-1.799 4.484-4.484 4.484h-536.844c-2.677 0-4.476-1.79-4.476-4.484v-339.992c0-2.694 1.799-4.468 4.476-4.468h536.844c2.686 0.008 4.484 1.774 4.484 4.468zM734.361 301.476h-527.9v331.056h527.9v-331.056zM855.146 280.008h-76.058v397.251c0 12.541-9.831 22.38-22.38 22.38h-572.618c-12.524 0-22.372-9.839-22.372-22.38v-397.251h-76.050c-7.162 0-13.42-6.258-13.42-13.428v-9.847c0-10.726 66.203-22.355 67.090-22.355h662.113c0.895 0 67.115 11.629 67.115 22.355v9.847c0.008 7.17-6.266 13.428-13.42 13.428zM170.669 677.259c0 7.17 6.275 13.428 13.428 13.428h572.618c7.17 0 13.428-6.258 13.428-13.428v-397.251h-219.215c-0.887 0-2.677-0.903-3.581-1.79-0.895-0.887-0.895-1.79-0.895-3.581v-0.887c0-2.694-1.782-4.476-4.476-4.476h-143.14c-2.686 0-4.484 1.782-4.484 4.476v0.887c0 0.895 0 2.694-0.895 3.581-0.879 0.887-1.782 1.79-3.573 1.79h-219.215v397.251zM859.622 258.532c-8.057-4.476-52.792-15.218-58.163-15.218h-662.113c-5.355 0-50.090 10.742-58.146 15.218v8.049c0 2.694 1.782 4.476 4.476 4.476h78.728c0.887 0 0.887-0.895 1.782-0.895s1.799 0 1.799 0.895h217.416c1.799-5.371 7.17-9.839 12.524-9.839h143.165c6.258 0 10.734 3.581 12.533 9.839h218.312c0.895 0 0.895-0.895 1.79-0.895 0.887 0 1.782 0 1.782 0.895h79.639c2.677 0 4.476-1.782 4.476-4.476v-8.049z" />
<glyph unicode="&#xe92e;" glyph-name="calzado" horiz-adv-x="941" d="M452.917 523.196c-1.47 0-2.932 0-4.394 1.47-23.48 19.078-33.754 41.080-32.284 67.492 0 4.394 4.394 7.334 7.342 7.334 4.394 0 7.326-4.41 7.326-7.334-1.462-20.548 7.342-38.148 26.404-54.286 2.94-2.94 2.94-7.342 1.47-10.274s-4.394-4.402-5.864-4.402zM414.761 521.726c-1.462 0-4.394 0-5.872 1.47-11.736 11.736-19.078 24.942-20.532 41.080 0 4.402 2.924 7.342 5.872 8.812 4.394 0 7.326-2.94 8.796-5.864 1.47-13.206 5.864-23.472 16.13-32.284 2.94-2.932 2.94-7.334 0-10.266 0-2.948-2.924-2.948-4.394-2.948zM378.083 518.802c-1.462 0-4.394 1.462-5.864 2.924-7.334 8.812-11.736 17.608-13.198 29.361 0 4.394 1.462 7.326 5.864 8.796 4.402 0 7.334-1.47 8.804-5.872 1.47-8.804 4.394-14.676 10.274-20.54 2.932-2.932 2.932-7.326 0-10.274-2.94-4.394-4.41-4.394-5.88-4.394zM793.304 335.403c-2.94 0-4.402 0-5.88 0l-181.921 4.394c-1.47 0-2.94 0-4.402 1.47l-14.668 13.206-27.874-2.932c-242.079-38.14-402.006 0-460.695 19.070-33.746 10.282-33.746 51.363-33.746 68.963 0 20.54 10.274 29.336 19.078 38.14 11.736 11.744 41.080 11.744 77.758 13.206 27.891 0 58.688 1.462 85.101 7.334 46.944 10.274 137.917 79.229 177.535 108.573 8.796 7.342 16.13 11.736 19.070 14.676 30.814 20.54 70.424 5.864 117.369-42.55 51.363-52.816 110.043-48.414 129.113-42.55 20.54 7.342 114.437 46.944 114.437 48.414 1.47 1.462 4.394 1.462 5.864 0 1.47-1.47 2.932-2.932 4.394-4.394 33.754-90.965 30.814-133.515 20.548-152.593-2.94-7.342-7.342-11.736-10.274-14.676 0-8.804 1.462-26.404 1.462-46.944 0-11.736-4.394-19.078-8.796-22.002-7.342-7.334-17.616-8.804-23.472-8.804zM608.426 354.473l180.467-4.41c4.402 0 13.198 0 19.070 4.41 2.94 2.932 4.402 5.864 2.94 10.266-1.47 26.412-1.47 49.893-1.47 49.893 0 2.94 1.47 5.864 4.394 7.342 0 0 35.216 16.13-11.736 143.781-22.002-10.266-90.965-39.602-108.573-45.482-26.404-8.804-89.494-8.804-143.781 46.952-42.55 42.55-74.835 57.21-98.307 41.080-4.394-2.924-10.266-7.342-19.078-14.668-42.55-32.276-133.507-99.769-183.383-110.043-27.891-5.864-60.15-5.864-88.041-7.326-29.336 0-60.15-1.47-67.484-8.812-8.804-8.796-14.668-14.66-14.668-26.404 0-16.146 0-48.406 23.472-55.748 57.21-17.608 214.205-57.218 453.353-19.078l32.284 2.932c1.454 0 4.394 0 5.864-1.462l14.676-13.223zM332.609 383.817c-199.537 0-262.628 46.944-265.56 49.884-2.94 2.932-2.94 7.334-1.47 10.266 2.932 2.94 7.342 2.94 10.266 1.47 1.47-1.47 99.777-74.835 444.557-35.208 246.481 27.874 296.366 14.66 297.828 13.198 4.402-1.462 5.864-5.856 4.402-8.804-1.47-4.394-5.872-5.872-8.812-4.394-1.462 0-51.338 13.198-291.964-14.676-73.34-8.804-136.439-11.736-189.247-11.736zM587.894 402.896c-2.94 0-5.88 1.462-7.342 4.394v0c-1.47 4.402-46.944 110.043-269.97 29.352-2.924-1.462-5.864 0-7.326 1.462-1.47 1.47-2.94 4.418-2.94 7.342l22.010 88.033c1.462 4.41 4.402 5.864 8.804 5.864 4.394-1.454 5.864-4.394 5.864-8.796l-19.078-74.835c227.42 77.767 274.364-38.132 275.834-42.55 1.462-4.394 0-7.334-4.418-8.804 0.016-1.462 0.016-1.462-1.437-1.462z" />
<glyph unicode="&#xe92f;" glyph-name="moda" horiz-adv-x="941" d="M694.315 739.914c-0.353 0.271-0.764 0.501-1.183 0.632l-121.048 42.903c-0.074 0.025-0.164 0-0.246 0.025-0.287 0.082-0.558 0.099-0.871 0.123-0.271 0.025-0.542 0.066-0.805 0.033-0.271-0.049-0.55-0.131-0.821-0.23-0.222-0.066-0.46-0.066-0.673-0.164-0.057-0.041-0.099-0.099-0.164-0.14-0.057-0.033-0.123-0.033-0.189-0.074-0.37-0.23-38.797-23.948-97.921-23.948s-97.535 23.702-97.913 23.94c-0.074 0.041-0.14 0.041-0.189 0.074-0.074 0.041-0.115 0.099-0.164 0.14-0.222 0.099-0.46 0.099-0.665 0.181-0.263 0.082-0.509 0.164-0.78 0.214-0.296 0.033-0.591 0-0.887-0.033-0.279-0.016-0.534-0.041-0.788-0.099-0.099-0.033-0.181-0.025-0.271-0.041l-24.178-8.574c-0.074-0.033-0.14 0-0.205-0.033-0.099-0.041-0.164-0.099-0.263-0.148l-96.393-34.149c-0.427-0.148-0.821-0.361-1.191-0.641l-168.633-128.883c-1.068-0.813-1.692-2.078-1.692-3.433 0-1.987 0.821-49.851 73.085-128.612 1.289-1.396 3.326-1.807 5.034-1.002l90.513 42.23v-393.827c0-2.291 1.749-4.164 4.016-4.32 1.388-0.099 139.666-9.691 221.58-9.691 81.906 0 220.184 9.584 221.564 9.691 2.267 0.164 4.032 2.029 4.032 4.32v393.827l90.496-42.23c1.741-0.805 3.745-0.394 5.034 1.002 72.272 78.76 73.102 126.616 73.102 128.612 0 1.355-0.624 2.62-1.708 3.425l-168.616 128.899zM367.505 773.808c6.39-17.173 34.124-78.875 102.906-78.875 68.716 0 96.5 61.711 102.898 78.875l16.352-5.782c-12.549-35.389-50.131-90.423-119.249-90.423-69.168 0-106.725 55.034-119.241 90.423l16.335 5.782zM562.435 770.105c-9.256-21.099-35.668-66.515-92.016-66.515-56.413 0-82.809 45.425-92.040 66.515 15.678-7.457 48.078-19.702 92.040-19.702 43.938 0 76.338 12.253 92.016 19.702zM153.521 487.175c-59.518 65.653-67.468 108.786-68.511 118.387l15.908 12.163c0.517-5.757 1.215-9.666 1.24-9.666 0.025-0.411 2.924-42.485 66.384-111.644l1.519-1.519-16.541-7.72zM470.411 121.042c-73.759 0-193.534 7.802-216.948 9.379v17.37c19.875-1.347 142.22-9.42 216.948-9.42 74.104 0 197.024 8.073 216.932 9.42v-17.37c-23.406-1.577-143.181-9.379-216.932-9.379zM693.51 530.941c-1.339 0.624-2.916 0.526-4.156-0.263-1.257-0.805-1.996-2.193-1.996-3.655v-370.552c-17.846-1.207-142.385-9.445-216.948-9.445-75.254 0-199.118 8.221-216.932 9.445v370.543c0 1.47-0.764 2.858-2.012 3.655s-2.817 0.887-4.156 0.263l-68.913-32.145-3.589 3.597c-60.405 65.833-63.977 105.789-64.068 106.7-0.025 0.057-1.191 6.488-1.569 14.947l142.056 108.573 91.786 32.514c13.338-37.672 53.424-96.188 127.405-96.188 73.923 0 114.034 58.549 127.405 96.188l91.769-32.514 142.056-108.564c-0.386-8.435-1.577-14.923-1.643-15.489-0.025-0.394-3.54-40.284-63.879-106.027l-3.72-3.729-68.897 32.145zM787.3 487.175l-16.557 7.72 1.643 1.651c63.649 69.34 66.236 110.938 66.203 110.938 0.041 0.238 0.78 4.32 1.322 10.241l15.916-12.163c-1.076-9.625-9.059-52.751-68.527-118.387z" />
<glyph unicode="&#xe930;" glyph-name="facebook-ach" horiz-adv-x="1057" d="M931.794 905.762h-808.817c-27.719 0-50.179-22.46-50.179-50.179v-808.817c0-27.711 22.46-50.179 50.179-50.179h435.437v352.078h-118.482v137.214h118.482v101.189c0 117.432 71.724 181.374 176.48 181.374 50.179 0 93.306-3.736 105.873-5.406v-122.721l-72.655-0.034c-56.974 0-68.005-27.073-68.005-66.8v-87.602h135.875l-17.692-137.214h-118.179v-352.078h231.683c27.711 0 50.179 22.468 50.179 50.179v808.817c0 27.715-22.468 50.179-50.179 50.179z" />
<glyph unicode="&#xe931;" glyph-name="in-ach" horiz-adv-x="1057" d="M922.559 905.762h-782.097c-37.343 0-67.665-29.625-67.665-66.171v-785.333c0-36.546 30.321-66.221 67.665-66.221h782.097c37.444 0 67.912 29.675 67.912 66.221v785.333c0 36.546-30.468 66.171-67.912 66.171zM344.998 123.762h-136.274v437.951h136.274v-437.951zM276.938 621.538c-43.715 0-79.018 35.375-79.018 78.943s35.299 78.943 79.018 78.943c43.518 0 78.867-35.375 78.867-78.943s-35.354-78.943-78.867-78.943zM854.794 123.762h-136.077v213.001c0 50.787-0.894 116.11-70.746 116.11-70.804 0-81.608-55.367-81.608-112.475v-216.636h-135.976v437.951h130.448v-59.87h1.893c18.174 34.431 62.536 70.725 128.757 70.725 137.869 0 163.309-90.666 163.309-208.623v-240.182z" />
<glyph unicode="&#xe932;" glyph-name="twitter-ach" horiz-adv-x="1057" d="M932.28 905.762h-805.984c-31.866 0-57.696-25.83-57.696-57.696v-785.622c0-31.866 25.83-57.696 57.696-57.696h805.984c31.862 0 57.696 25.83 57.696 57.696v785.622c-0.004 31.866-25.834 57.696-57.696 57.696zM815.125 567.946c0.277-6.191 0.416-12.42 0.416-18.682 0-190.822-145.244-410.862-410.858-410.862-81.549 0-157.454 23.904-221.358 64.878 11.295-1.331 22.791-2.015 34.447-2.015 67.652 0 129.919 23.085 179.338 61.814-63.19 1.167-116.517 42.917-134.893 100.286 8.819-1.683 17.864-2.59 27.169-2.59 13.171 0 25.927 1.763 38.044 5.062-66.061 13.263-115.837 71.631-115.837 141.596l0.013 1.817c19.471-10.816 41.738-17.314 65.407-18.061-38.745 25.897-64.24 70.095-64.24 120.194 0 26.464 7.119 51.27 19.551 72.597 71.22-87.367 177.626-144.857 297.639-150.876-2.46 10.569-3.74 21.591-3.74 32.907 0 79.745 64.655 144.4 144.408 144.4 41.532 0 79.060-17.536 105.403-45.604 32.894 6.476 63.799 18.493 91.699 35.043-10.783-33.721-33.679-62.019-63.493-79.892 29.213 3.488 57.041 11.253 82.939 22.737-19.362-28.953-43.845-54.389-72.055-74.75z" />
<glyph unicode="&#xe933;" glyph-name="youtube-square" horiz-adv-x="878" d="M525.143 206.286v89.714q0 28.571-16.571 28.571-9.714 0-18.857-9.143v-128q9.143-9.143 18.857-9.143 16.571 0 16.571 28zM630.286 276h37.714v19.429q0 29.143-18.857 29.143t-18.857-29.143v-19.429zM304 428v-40h-45.714v-241.714h-42.286v241.714h-44.571v40h132.571zM418.857 356v-209.714h-38.286v22.857q-22.286-25.714-43.429-25.714-18.857 0-24 16-3.429 9.143-3.429 30.857v165.714h37.714v-154.286q0-13.714 0.571-14.857 0.571-8.571 8.571-8.571 11.429 0 24 17.714v160h38.286zM562.857 292.571v-83.429q0-29.714-4-41.714-6.857-24-30.286-24-20 0-38.857 23.429v-20.571h-38.286v281.714h38.286v-92q18.286 22.857 38.857 22.857 23.429 0 30.286-24 4-12 4-42.286zM706.286 218.857v-5.143q0-16.571-1.143-24.571-1.714-12.571-8.571-22.857-15.429-22.857-45.714-22.857-29.714 0-46.286 21.714-12 15.429-12 49.143v73.714q0 33.714 11.429 49.143 16.571 21.714 45.714 21.714t44.571-21.714q12-16 12-49.143v-43.429h-76v-37.143q0-29.143 19.429-29.143 13.714 0 17.143 14.857 0 0.571 0.286 4t0.286 9.429v12.286h38.857zM448.571 689.714v-89.143q0-29.143-18.286-29.143t-18.286 29.143v89.143q0 29.714 18.286 29.714t18.286-29.714zM753.143 282.286q0 101.143-10.857 148.571-5.714 25.143-24.571 42t-43.429 19.714q-77.714 8.571-235.429 8.571-157.143 0-234.857-8.571-25.143-2.857-43.714-19.714t-24.286-42q-11.429-49.714-11.429-148.571 0-100.571 11.429-148.571 5.714-24.571 24.286-41.714t43.143-20q78.286-8.571 235.429-8.571t235.429 8.571q24.571 2.857 43.143 20t24.286 41.714q11.429 48 11.429 148.571zM321.714 654.286l51.429 169.143h-42.857l-29.143-111.429-30.286 111.429h-44.571l13.714-39.429t13.143-39.429q20-58.857 26.286-90.286v-114.857h42.286v114.857zM486.857 608v74.286q0 33.143-12 49.714-16.571 21.714-44.571 21.714-29.143 0-44.571-21.714-12-16.571-12-49.714v-74.286q0-33.143 12-49.714 15.429-21.714 44.571-21.714 28 0 44.571 21.714 12 15.429 12 49.714zM590.286 539.428h38.286v211.429h-38.286v-161.714q-12.571-17.714-24-17.714-8.571 0-9.143 9.143-0.571 1.143-0.571 14.857v155.429h-38.286v-167.429q0-21.143 3.429-31.429 6.286-15.429 24.571-15.429 20.571 0 44 25.714v-22.857zM877.714 713.143v-548.571q0-68-48.286-116.286t-116.286-48.286h-548.571q-68 0-116.286 48.286t-48.286 116.286v548.571q0 68 48.286 116.286t116.286 48.286h548.571q68 0 116.286-48.286t48.286-116.286z" />
<glyph unicode="&#xe934;" glyph-name="stack" d="M1024 640l-512 256-512-256 512-256 512 256zM512 811.030l342.058-171.030-342.058-171.030-342.058 171.030 342.058 171.030zM921.444 499.278l102.556-51.278-512-256-512 256 102.556 51.278 409.444-204.722zM921.444 307.278l102.556-51.278-512-256-512 256 102.556 51.278 409.444-204.722z" />
<glyph unicode="&#xe93a;" glyph-name="cart" d="M384 32c0-53.019-42.981-96-96-96s-96 42.981-96 96c0 53.019 42.981 96 96 96s96-42.981 96-96zM1024 32c0-53.019-42.981-96-96-96s-96 42.981-96 96c0 53.019 42.981 96 96 96s96-42.981 96-96zM1024 448v384h-768c0 35.346-28.654 64-64 64h-192v-64h128l48.074-412.054c-29.294-23.458-48.074-59.5-48.074-99.946 0-70.696 57.308-128 128-128h768v64h-768c-35.346 0-64 28.654-64 64 0 0.218 0.014 0.436 0.016 0.656l831.984 127.344z" />
<glyph unicode="&#xe942;" glyph-name="phone2" d="M704 320c-64-64-64-128-128-128s-128 64-192 128-128 128-128 192 64 64 128 128-128 256-192 256-192-192-192-192c0-128 131.5-387.5 256-512s384-256 512-256c0 0 192 128 192 192s-192 256-256 192z" />
<glyph unicode="&#xe947;" glyph-name="location" d="M512 960c-176.732 0-320-143.268-320-320 0-320 320-704 320-704s320 384 320 704c0 176.732-143.27 320-320 320zM512 448c-106.040 0-192 85.96-192 192s85.96 192 192 192 192-85.96 192-192-85.96-192-192-192z" />
<glyph unicode="&#xe986;" glyph-name="search" d="M992.262 88.604l-242.552 206.294c-25.074 22.566-51.89 32.926-73.552 31.926 57.256 67.068 91.842 154.078 91.842 249.176 0 212.078-171.922 384-384 384-212.076 0-384-171.922-384-384s171.922-384 384-384c95.098 0 182.108 34.586 249.176 91.844-1-21.662 9.36-48.478 31.926-73.552l206.294-242.552c35.322-39.246 93.022-42.554 128.22-7.356s31.892 92.898-7.354 128.22zM384 320c-141.384 0-256 114.616-256 256s114.616 256 256 256 256-114.616 256-256-114.614-256-256-256z" />
<glyph unicode="&#xe9bd;" glyph-name="menu" d="M64 768h896v-192h-896zM64 512h896v-192h-896zM64 256h896v-192h-896z" />
<glyph unicode="&#xe9d7;" glyph-name="star-empty" d="M1024 562.95l-353.78 51.408-158.22 320.582-158.216-320.582-353.784-51.408 256-249.538-60.432-352.352 316.432 166.358 316.432-166.358-60.434 352.352 256.002 249.538zM512 206.502l-223.462-117.48 42.676 248.83-180.786 176.222 249.84 36.304 111.732 226.396 111.736-226.396 249.836-36.304-180.788-176.222 42.678-248.83-223.462 117.48z" />
<glyph unicode="&#xe9d9;" glyph-name="star-full" d="M1024 562.95l-353.78 51.408-158.22 320.582-158.216-320.582-353.784-51.408 256-249.538-60.432-352.352 316.432 166.358 316.432-166.358-60.434 352.352 256.002 249.538z" />
<glyph unicode="&#xea0f;" glyph-name="cross" d="M1014.662 137.34c-0.004 0.004-0.008 0.008-0.012 0.010l-310.644 310.65 310.644 310.65c0.004 0.004 0.008 0.006 0.012 0.010 3.344 3.346 5.762 7.254 7.312 11.416 4.246 11.376 1.824 24.682-7.324 33.83l-146.746 146.746c-9.148 9.146-22.45 11.566-33.828 7.32-4.16-1.55-8.070-3.968-11.418-7.31 0-0.004-0.004-0.006-0.008-0.010l-310.648-310.652-310.648 310.65c-0.004 0.004-0.006 0.006-0.010 0.010-3.346 3.342-7.254 5.76-11.414 7.31-11.38 4.248-24.682 1.826-33.83-7.32l-146.748-146.748c-9.148-9.148-11.568-22.452-7.322-33.828 1.552-4.16 3.97-8.072 7.312-11.416 0.004-0.002 0.006-0.006 0.010-0.010l310.65-310.648-310.65-310.652c-0.002-0.004-0.006-0.006-0.008-0.010-3.342-3.346-5.76-7.254-7.314-11.414-4.248-11.376-1.826-24.682 7.322-33.83l146.748-146.746c9.15-9.148 22.452-11.568 33.83-7.322 4.16 1.552 8.070 3.97 11.416 7.312 0.002 0.004 0.006 0.006 0.010 0.010l310.648 310.65 310.648-310.65c0.004-0.002 0.008-0.006 0.012-0.008 3.348-3.344 7.254-5.762 11.414-7.314 11.378-4.246 24.684-1.826 33.828 7.322l146.746 146.748c9.148 9.148 11.57 22.454 7.324 33.83-1.552 4.16-3.97 8.068-7.314 11.414z" />
<glyph unicode="&#xea10;" glyph-name="checkmark" d="M864 832l-480-480-224 224-160-160 384-384 640 640z" />
<glyph unicode="&#xea15;" glyph-name="play2" d="M512 960c-282.77 0-512-229.23-512-512s229.23-512 512-512 512 229.23 512 512-229.23 512-512 512zM512 32c-229.75 0-416 186.25-416 416s186.25 416 416 416 416-186.25 416-416-186.25-416-416-416zM384 672l384-224-384-224z" />
<glyph unicode="&#xea42;" glyph-name="circle-right" d="M512 960c-282.77 0-512-229.23-512-512s229.23-512 512-512 512 229.23 512 512-229.23 512-512 512zM512 32c-229.75 0-416 186.25-416 416s186.25 416 416 416 416-186.25 416-416-186.25-416-416-416zM354.744 253.256l90.512-90.512 285.254 285.256-285.256 285.254-90.508-90.508 194.744-194.746z" />
<glyph unicode="&#xea44;" glyph-name="circle-left" d="M512-64c282.77 0 512 229.23 512 512s-229.23 512-512 512-512-229.23-512-512 229.23-512 512-512zM512 864c229.75 0 416-186.25 416-416s-186.25-416-416-416-416 186.25-416 416 186.25 416 416 416zM669.256 642.744l-90.512 90.512-285.254-285.256 285.256-285.254 90.508 90.508-194.744 194.746z" />
<glyph unicode="&#xea50;" glyph-name="ctrl" d="M736.014 512c-8.908 0-17.77 3.698-24.096 10.928l-199.918 228.478-199.918-228.478c-11.636-13.3-31.856-14.65-45.154-3.010-13.3 11.638-14.648 31.854-3.010 45.154l224 256c6.076 6.944 14.854 10.928 24.082 10.928s18.006-3.984 24.082-10.928l224-256c11.638-13.3 10.292-33.516-3.010-45.154-6.070-5.312-13.582-7.918-21.058-7.918z" />
<glyph unicode="&#xea54;" glyph-name="radio-checked" d="M512 960c-282.77 0-512-229.23-512-512s229.23-512 512-512 512 229.23 512 512-229.23 512-512 512zM512 64c-212.078 0-384 171.922-384 384s171.922 384 384 384c212.078 0 384-171.922 384-384s-171.922-384-384-384zM320 448c0 106.039 85.961 192 192 192s192-85.961 192-192c0-106.039-85.961-192-192-192s-192 85.961-192 192z" />
</font>
</defs>
</svg>
